SplineFontDB: 3.2
FontName: Agave-BoldItalic
FullName: Agave Bold Italic
FamilyName: Agave
Weight: Bold
Copyright: Copyright 2013-2026 type agaric <agaric@pm.me>
Version: 38
ItalicAngle: -10
UnderlinePosition: -384
UnderlineWidth: 128
Ascent: 1536
Descent: 512
InvalidEm: 0
sfntRevision: 0x00260000
LayerCount: 2
Layer: 0 1 "Back" 1
Layer: 1 1 "Fore" 0
XUID: [1021 584 1762956521 11297310]
StyleMap: 0x0021
FSType: 0
OS2Version: 0
OS2_WeightWidthSlopeOnly: 0
OS2_UseTypoMetrics: 1
CreationTime: 1604070579
ModificationTime: 1782123018
PfmFamily: 49
TTFWeight: 700
TTFWidth: 5
LineGap: 0
VLineGap: 0
Panose: 2 11 8 9 4 6 4 2 2 3
OS2TypoAscent: 1536
OS2TypoAOffset: 0
OS2TypoDescent: -512
OS2TypoDOffset: 0
OS2TypoLinegap: 0
OS2WinAscent: 1536
OS2WinAOffset: 0
OS2WinDescent: 512
OS2WinDOffset: 0
HheadAscent: 1536
HheadAOffset: 0
HheadDescent: -512
HheadDOffset: 0
OS2SubXSize: 1403
OS2SubYSize: 1224
OS2SubXOff: 0
OS2SubYOff: 120
OS2SupXSize: 1403
OS2SupYSize: 1224
OS2SupXOff: 0
OS2SupYOff: 648
OS2StrikeYSize: 128
OS2StrikeYPos: 512
OS2CapHeight: 1280
OS2XHeight: 1024
OS2FamilyClass: 1285
OS2Vendor: 'agrc'
MarkAttachClasses: 1
DEI: 91125

StartChar: hyphen
Encoding: 45 45 0
Width: 1024
Flags: HW
LayerCount: 2
Fore
SplineSet
322.834960938 742 m 0
 962.834960938 742 l 0
 926.864257812 538 l 0
 286.864257812 538 l 0
 322.834960938 742 l 0
EndSplineSet
EndChar

StartChar: .notdef
Encoding: 65536 -1 3
Width: 1024
VWidth: 0
Flags: W
LayerCount: 2
Fore
SplineSet
320 1280 m 2,0,-1
 433 1280 l 1,1,-1
 433 1152 l 1,2,-1
 320 1152 l 2,3,4
 267 1152 267 1152 229.5 1114.5 c 128,-1,5
 192 1077 192 1077 192 1024 c 2,6,-1
 192 768 l 1,7,-1
 64 768 l 1,8,-1
 64 1024 l 2,9,10
 64 1130 64 1130 139 1205 c 128,-1,11
 214 1280 214 1280 320 1280 c 2,0,-1
591 1280 m 1,12,-1
 704 1280 l 2,13,14
 810 1280 810 1280 885 1205 c 128,-1,15
 960 1130 960 1130 960 1024 c 2,16,-1
 960 768 l 1,17,-1
 832 768 l 1,18,-1
 832 1024 l 2,19,20
 832 1077 832 1077 794.5 1114.5 c 128,-1,21
 757 1152 757 1152 704 1152 c 2,22,-1
 591 1152 l 1,23,-1
 591 1280 l 1,12,-1
64 512 m 1,24,-1
 192 512 l 1,25,-1
 192 256 l 2,26,27
 192 203 192 203 229.5 165.5 c 128,-1,28
 267 128 267 128 320 128 c 2,29,-1
 433 128 l 1,30,-1
 433 0 l 1,31,-1
 320 0 l 2,32,33
 214 0 214 0 139 75 c 128,-1,34
 64 150 64 150 64 256 c 2,35,-1
 64 512 l 1,24,-1
832 512 m 1,36,-1
 960 512 l 1,37,-1
 960 256 l 2,38,39
 960 150 960 150 885 75 c 128,-1,40
 810 0 810 0 704 0 c 2,41,-1
 591 0 l 1,42,-1
 591 128 l 1,43,-1
 704 128 l 2,44,45
 757 128 757 128 794.5 165.5 c 128,-1,46
 832 203 832 203 832 256 c 2,47,-1
 832 512 l 1,36,-1
EndSplineSet
EndChar

StartChar: agave.Aduck
Encoding: 65537 -1 4
Width: 1024
VWidth: 0
Flags: W
LayerCount: 2
Fore
SplineSet
410 1152 m 1,0,-1
 614 1152 l 1,1,-1
 960 0 l 1,2,-1
 783 0 l 1,3,-1
 706 256 l 1,4,-1
 318 256 l 1,5,-1
 241 0 l 1,6,-1
 64 0 l 1,7,-1
 410 1152 l 1,0,-1
512 975 m 1,8,-1
 481 798 l 1,9,-1
 365 413 l 1,10,-1
 659 413 l 1,11,-1
 543 798 l 1,12,-1
 512 975 l 1,8,-1
EndSplineSet
EndChar

StartChar: agave.Bduck
Encoding: 65538 -1 5
Width: 1024
VWidth: 0
Flags: W
LayerCount: 2
Fore
SplineSet
128 1152 m 1,0,-1
 384 1152 l 2,1,2
 611 1152 611 1152 729.5 1078 c 128,-1,3
 848 1004 848 1004 848 832 c 0,4,5
 848 782 848 782 830.5 741 c 128,-1,6
 813 700 813 700 788 676.5 c 128,-1,7
 763 653 763 653 738 636.5 c 128,-1,8
 713 620 713 620 695.5 614.5 c 2,9,-1
 678 609 l 1,10,11
 689 607 689 607 707 602 c 128,-1,12
 725 597 725 597 770.5 575.5 c 128,-1,13
 816 554 816 554 851.5 526 c 128,-1,14
 887 498 887 498 915.5 447 c 128,-1,15
 944 396 944 396 944 335 c 0,16,17
 944 155 944 155 801 77.5 c 128,-1,18
 658 0 658 0 384 0 c 2,19,-1
 128 0 l 1,20,-1
 128 1152 l 1,0,-1
298 995 m 1,21,-1
 298 669 l 1,22,-1
 384 669 l 2,23,24
 521 669 521 669 599.5 712.5 c 128,-1,25
 678 756 678 756 678 832 c 128,-1,26
 678 908 678 908 599.5 951.5 c 128,-1,27
 521 995 521 995 384 995 c 2,28,-1
 298 995 l 1,21,-1
298 512 m 1,29,-1
 298 157 l 1,30,-1
 384 157 l 2,31,32
 479 157 479 157 547 165 c 128,-1,33
 615 173 615 173 668.5 192.5 c 128,-1,34
 722 212 722 212 748 247.5 c 128,-1,35
 774 283 774 283 774 335 c 128,-1,36
 774 387 774 387 748 422.5 c 128,-1,37
 722 458 722 458 668.5 477 c 128,-1,38
 615 496 615 496 547.5 504 c 128,-1,39
 480 512 480 512 384 512 c 2,40,-1
 298 512 l 1,29,-1
EndSplineSet
EndChar

StartChar: agave.Cduck
Encoding: 65539 -1 6
Width: 1024
VWidth: 0
Flags: W
LayerCount: 2
Fore
SplineSet
665 1160 m 0,0,1
 729 1160 729 1160 786.5 1156 c 128,-1,2
 844 1152 844 1152 870 1148 c 2,3,-1
 896 1144 l 1,4,-1
 896 995 l 1,5,-1
 665 995 l 2,6,7
 491 995 491 995 390.5 883 c 128,-1,8
 290 771 290 771 290 576 c 0,9,10
 290 350 290 350 385.5 253.5 c 128,-1,11
 481 157 481 157 665 157 c 2,12,-1
 896 157 l 1,13,-1
 896 8 l 1,14,15
 808 -8 808 -8 665 -8 c 0,16,17
 532 -8 532 -8 433.5 22 c 128,-1,18
 335 52 335 52 261 119 c 128,-1,19
 187 186 187 186 149.5 300.5 c 128,-1,20
 112 415 112 415 112 576 c 0,21,22
 112 847 112 847 260.5 1003.5 c 128,-1,23
 409 1160 409 1160 665 1160 c 0,0,1
EndSplineSet
EndChar

StartChar: agave.Dduck
Encoding: 65540 -1 7
Width: 1024
VWidth: 0
Flags: W
LayerCount: 2
Fore
SplineSet
128 1152 m 1,0,-1
 384 1152 l 2,1,2
 518 1152 518 1152 618 1122.5 c 128,-1,3
 718 1093 718 1093 793 1026.5 c 128,-1,4
 868 960 868 960 906 847.5 c 128,-1,5
 944 735 944 735 944 576 c 128,-1,6
 944 417 944 417 906 304.5 c 128,-1,7
 868 192 868 192 793 125.5 c 128,-1,8
 718 59 718 59 618 29.5 c 128,-1,9
 518 0 518 0 384 0 c 2,10,-1
 128 -0 l 1,11,-1
 128 1152 l 1,0,-1
298 995 m 1,12,-1
 298 157 l 1,13,-1
 384 157 l 2,14,15
 571 157 571 157 668.5 253.5 c 128,-1,16
 766 350 766 350 766 576 c 128,-1,17
 766 802 766 802 668.5 898.5 c 128,-1,18
 571 995 571 995 384 995 c 2,19,-1
 298 995 l 1,12,-1
EndSplineSet
EndChar

StartChar: agave.Educk
Encoding: 65541 -1 8
Width: 1024
VWidth: 0
Flags: W
LayerCount: 2
Fore
SplineSet
160 1152 m 1,0,-1
 896 1152 l 1,1,-1
 896 995 l 1,2,-1
 330 995 l 1,3,-1
 330 669 l 1,4,-1
 832 669 l 1,5,-1
 832 512 l 1,6,-1
 330 512 l 1,7,-1
 330 157 l 1,8,-1
 896 157 l 1,9,-1
 896 0 l 1,10,-1
 160 0 l 1,11,-1
 160 1152 l 1,0,-1
EndSplineSet
EndChar

StartChar: agave.Fduck
Encoding: 65542 -1 9
Width: 1024
VWidth: 0
Flags: W
LayerCount: 2
Fore
SplineSet
160 1152 m 1,0,-1
 896 1152 l 1,1,-1
 896 995 l 1,2,-1
 330 995 l 1,3,-1
 330 669 l 1,4,-1
 864 669 l 1,5,-1
 864 512 l 1,6,-1
 330 512 l 1,7,-1
 330 0 l 1,8,-1
 160 0 l 1,9,-1
 160 1152 l 1,0,-1
EndSplineSet
EndChar

StartChar: agave.Gduck
Encoding: 65543 -1 10
Width: 1024
VWidth: 0
Flags: W
LayerCount: 2
Fore
SplineSet
640 1160 m 0,0,1
 707 1160 707 1160 771 1156 c 128,-1,2
 835 1152 835 1152 865.5 1148 c 2,3,-1
 896 1144 l 1,4,-1
 896 995 l 1,5,-1
 640 995 l 2,6,7
 452 995 452 995 355 884.5 c 128,-1,8
 258 774 258 774 258 576 c 0,9,10
 258 458 258 458 279 374.5 c 128,-1,11
 300 291 300 291 341.5 242 c 128,-1,12
 383 193 383 193 438 171 c 128,-1,13
 493 149 493 149 567 149 c 0,14,15
 660 149 660 149 709 174 c 128,-1,16
 758 199 758 199 758 256 c 2,17,-1
 758 512 l 1,18,-1
 512 512 l 1,19,-1
 512 669 l 1,20,-1
 928 669 l 1,21,-1
 928 256 l 2,22,23
 928 114 928 114 836 53 c 128,-1,24
 744 -8 744 -8 567 -8 c 0,25,26
 450 -8 450 -8 363 22 c 128,-1,27
 276 52 276 52 211 119 c 128,-1,28
 146 186 146 186 113 300.5 c 128,-1,29
 80 415 80 415 80 576 c 0,30,31
 80 851 80 851 224.5 1005.5 c 128,-1,32
 369 1160 369 1160 640 1160 c 0,0,1
EndSplineSet
EndChar

StartChar: agave.Hduck
Encoding: 65544 -1 11
Width: 1024
VWidth: 0
Flags: W
LayerCount: 2
Fore
SplineSet
96 1152 m 1,0,-1
 266 1152 l 1,1,-1
 266 669 l 1,2,-1
 758 669 l 1,3,-1
 758 1152 l 1,4,-1
 928 1152 l 1,5,-1
 928 0 l 1,6,-1
 758 0 l 1,7,-1
 758 512 l 1,8,-1
 266 512 l 1,9,-1
 266 0 l 1,10,-1
 96 0 l 1,11,-1
 96 1152 l 1,0,-1
EndSplineSet
EndChar

StartChar: agave.Iduck
Encoding: 65545 -1 12
Width: 1024
VWidth: 0
Flags: W
LayerCount: 2
Fore
SplineSet
160 1152 m 5,0,-1
 864 1152 l 5,1,-1
 864 995 l 5,2,-1
 597 995 l 5,3,-1
 597 157 l 5,4,-1
 864 157 l 5,5,-1
 864 0 l 5,6,-1
 160 0 l 5,7,-1
 160 157 l 5,8,-1
 427 157 l 5,9,-1
 427 995 l 5,10,-1
 160 995 l 5,11,-1
 160 1152 l 5,0,-1
EndSplineSet
EndChar

StartChar: agave.Jduck
Encoding: 65546 -1 13
Width: 1024
VWidth: 0
Flags: W
LayerCount: 2
Fore
SplineSet
192 1152 m 1,0,-1
 832 1152 l 1,1,-1
 832 526 l 2,2,3
 832 378 832 378 798 273.5 c 128,-1,4
 764 169 764 169 697 108 c 128,-1,5
 630 47 630 47 541 19.5 c 128,-1,6
 452 -8 452 -8 332 -8 c 0,7,8
 276 -8 276 -8 225 -4 c 128,-1,9
 174 -0 174 -0 151 4 c 2,10,-1
 128 8 l 1,11,-1
 128 157 l 1,12,-1
 332 157 l 2,13,14
 494 157 494 157 578 242 c 128,-1,15
 662 327 662 327 662 526 c 2,16,-1
 662 995 l 1,17,-1
 192 995 l 1,18,-1
 192 1152 l 1,0,-1
EndSplineSet
EndChar

StartChar: agave.Kduck
Encoding: 65547 -1 14
Width: 1024
VWidth: 0
Flags: W
LayerCount: 2
Fore
SplineSet
741 1152 m 1,0,-1
 960 1152 l 1,1,-1
 491 576 l 1,2,-1
 960 0 l 1,3,-1
 741 0 l 1,4,-1
 298 544 l 1,5,-1
 298 0 l 1,6,-1
 128 0 l 1,7,-1
 128 1152 l 1,8,-1
 298 1152 l 1,9,-1
 298 608 l 1,10,-1
 741 1152 l 1,0,-1
EndSplineSet
EndChar

StartChar: agave.Lduck
Encoding: 65548 -1 15
Width: 1024
VWidth: 0
Flags: W
LayerCount: 2
Fore
SplineSet
160 1152 m 1,0,-1
 330 1152 l 1,1,-1
 330 157 l 1,2,-1
 896 157 l 1,3,-1
 896 0 l 1,4,-1
 160 0 l 1,5,-1
 160 1152 l 1,0,-1
EndSplineSet
EndChar

StartChar: agave.lduck
Encoding: 65549 -1 16
Width: 1024
VWidth: 0
Flags: W
LayerCount: 2
Fore
SplineSet
160 1152 m 1,0,-1
 597 1152 l 1,1,-1
 597 157 l 1,2,-1
 896 157 l 1,3,-1
 896 0 l 1,4,-1
 128 0 l 1,5,-1
 128 157 l 1,6,-1
 427 157 l 1,7,-1
 427 995 l 1,8,-1
 160 995 l 1,9,-1
 160 1152 l 1,0,-1
EndSplineSet
EndChar

StartChar: agave.Mduck
Encoding: 65550 -1 17
Width: 1024
VWidth: 0
Flags: W
LayerCount: 2
Fore
SplineSet
64 1152 m 1,0,-1
 221 1152 l 1,1,-1
 512 702 l 1,2,-1
 803 1152 l 1,3,-1
 960 1152 l 1,4,-1
 960 0 l 1,5,-1
 803 0 l 1,6,-1
 803 883 l 1,7,-1
 563 512 l 1,8,-1
 461 512 l 1,9,-1
 221 883 l 1,10,-1
 221 0 l 1,11,-1
 64 0 l 1,12,-1
 64 1152 l 1,0,-1
EndSplineSet
EndChar

StartChar: agave.Nduck
Encoding: 65551 -1 18
Width: 1024
VWidth: 0
Flags: W
LayerCount: 2
Fore
SplineSet
96 1152 m 1,0,-1
 300 1152 l 1,1,-1
 758 256 l 1,2,-1
 758 1152 l 1,3,-1
 928 1152 l 1,4,-1
 928 0 l 1,5,-1
 723 0 l 1,6,-1
 266 896 l 1,7,-1
 266 0 l 1,8,-1
 96 0 l 1,9,-1
 96 1152 l 1,0,-1
EndSplineSet
EndChar

StartChar: agave.Oduck
Encoding: 65552 -1 19
Width: 1024
VWidth: 0
Flags: W
LayerCount: 2
Fore
SplineSet
16 576 m 128,-1,1
 16 739 16 739 49.5 855 c 128,-1,2
 83 971 83 971 149.5 1039 c 128,-1,3
 216 1107 216 1107 304.5 1137.5 c 128,-1,4
 393 1168 393 1168 512 1168 c 128,-1,5
 631 1168 631 1168 719.5 1137.5 c 128,-1,6
 808 1107 808 1107 874.5 1039 c 128,-1,7
 941 971 941 971 974.5 855 c 128,-1,8
 1008 739 1008 739 1008 576 c 128,-1,9
 1008 413 1008 413 974.5 297 c 128,-1,10
 941 181 941 181 874.5 113 c 128,-1,11
 808 45 808 45 719.5 14.5 c 128,-1,12
 631 -16 631 -16 512 -16 c 128,-1,13
 393 -16 393 -16 304.5 14.5 c 128,-1,14
 216 45 216 45 149.5 113 c 128,-1,15
 83 181 83 181 49.5 297 c 128,-1,0
 16 413 16 413 16 576 c 128,-1,1
512 1011 m 128,-1,17
 434 1011 434 1011 376 988.5 c 128,-1,18
 318 966 318 966 274 916 c 128,-1,19
 230 866 230 866 208 781 c 128,-1,20
 186 696 186 696 186 576 c 128,-1,21
 186 456 186 456 208 371 c 128,-1,22
 230 286 230 286 274 236 c 128,-1,23
 318 186 318 186 376 163.5 c 128,-1,24
 434 141 434 141 512 141 c 128,-1,25
 590 141 590 141 648 163.5 c 128,-1,26
 706 186 706 186 750 236 c 128,-1,27
 794 286 794 286 816 371 c 128,-1,28
 838 456 838 456 838 576 c 128,-1,29
 838 696 838 696 816 781 c 128,-1,30
 794 866 794 866 750 916 c 128,-1,31
 706 966 706 966 648 988.5 c 128,-1,16
 590 1011 590 1011 512 1011 c 128,-1,17
EndSplineSet
EndChar

StartChar: agave.Pduck
Encoding: 65553 -1 20
Width: 1024
VWidth: 0
Flags: W
LayerCount: 2
Fore
SplineSet
160 1152 m 1,0,-1
 604 1152 l 2,1,2
 762 1152 762 1152 853 1066 c 128,-1,3
 944 980 944 980 944 832 c 128,-1,4
 944 684 944 684 825 598 c 128,-1,5
 706 512 706 512 500 512 c 2,6,-1
 330 512 l 1,7,-1
 330 0 l 1,8,-1
 160 0 l 1,9,-1
 160 1152 l 1,0,-1
330 995 m 1,10,-1
 330 669 l 1,11,-1
 500 669 l 2,12,13
 627 669 627 669 700.5 712.5 c 128,-1,14
 774 756 774 756 774 832 c 128,-1,15
 774 908 774 908 728.5 951.5 c 128,-1,16
 683 995 683 995 604 995 c 2,17,-1
 330 995 l 1,10,-1
EndSplineSet
EndChar

StartChar: agave.Rduck
Encoding: 65554 -1 21
Width: 1024
VWidth: 0
Flags: W
LayerCount: 2
Fore
SplineSet
128 1152 m 1,0,-1
 572 1152 l 2,1,2
 739 1152 739 1152 825.5 1078 c 128,-1,3
 912 1004 912 1004 912 832 c 0,4,5
 912 705.021087314 912 705.021087314 856.087732856 632.357814115 c 128,-1,6
 800.175465712 559.694540917 800.175465712 559.694540917 692.443359375 531.634765625 c 1,7,-1
 960 0 l 1,8,-1
 770 0 l 1,9,-1
 512 512 l 1,10,-1
 298 512 l 1,11,-1
 298 0 l 1,12,-1
 128 0 l 1,13,-1
 128 1152 l 1,0,-1
298 995 m 1,14,-1
 298 669 l 1,15,-1
 468 669 l 2,16,17
 602 669 602 669 672 706.5 c 128,-1,18
 742 744 742 744 742 832 c 128,-1,19
 742 920 742 920 698.5 957.5 c 128,-1,20
 655 995 655 995 572 995 c 2,21,-1
 298 995 l 1,14,-1
EndSplineSet
EndChar

StartChar: agave.Sduck
Encoding: 65555 -1 22
Width: 1024
VWidth: 0
Flags: W
LayerCount: 2
Fore
SplineSet
652 1160 m 0,0,1
 719 1160 719 1160 780 1156 c 128,-1,2
 841 1152 841 1152 868.5 1148 c 2,3,-1
 896 1144 l 1,4,-1
 896 995 l 1,5,-1
 652 995 l 2,6,7
 579 995 579 995 527.5 991.5 c 128,-1,8
 476 988 476 988 428.5 978 c 128,-1,9
 381 968 381 968 352.5 951 c 128,-1,10
 324 934 324 934 307 905 c 128,-1,11
 290 876 290 876 290 835 c 0,12,13
 290 783 290 783 326 746 c 128,-1,14
 362 709 362 709 419.5 687 c 128,-1,15
 477 665 477 665 547 645.5 c 128,-1,16
 617 626 617 626 687 602 c 128,-1,17
 757 578 757 578 814.5 545 c 128,-1,18
 872 512 872 512 908 454 c 128,-1,19
 944 396 944 396 944 317 c 0,20,21
 944 237 944 237 924.5 182.5 c 128,-1,22
 905 128 905 128 864.5 90 c 128,-1,23
 824 52 824 52 751.5 31 c 128,-1,24
 679 10 679 10 584.5 1 c 128,-1,25
 490 -8 490 -8 352 -8 c 0,26,27
 282 -8 282 -8 218 -4 c 128,-1,28
 154 -0 154 -0 125 4 c 2,29,-1
 96 8 l 1,30,-1
 96 157 l 1,31,-1
 352 157 l 2,32,33
 595 157 595 157 680.5 187 c 128,-1,34
 766 217 766 217 766 317 c 0,35,36
 766 369 766 369 730 406 c 128,-1,37
 694 443 694 443 636.5 465 c 128,-1,38
 579 487 579 487 509 506.5 c 128,-1,39
 439 526 439 526 369 550 c 128,-1,40
 299 574 299 574 241.5 607 c 128,-1,41
 184 640 184 640 148 698 c 128,-1,42
 112 756 112 756 112 835 c 0,43,44
 112 912 112 912 136.5 969 c 128,-1,45
 161 1026 161 1026 205 1062.5 c 128,-1,46
 249 1099 249 1099 318 1121 c 128,-1,47
 387 1143 387 1143 467 1151.5 c 128,-1,48
 547 1160 547 1160 652 1160 c 0,0,1
EndSplineSet
EndChar

StartChar: agave.Tduck
Encoding: 65556 -1 23
Width: 1024
VWidth: 0
Flags: W
LayerCount: 2
Fore
SplineSet
64 1152 m 1,0,-1
 960 1152 l 1,1,-1
 960 995 l 1,2,-1
 597 995 l 1,3,-1
 597 0 l 1,4,-1
 427 0 l 1,5,-1
 427 995 l 1,6,-1
 64 995 l 1,7,-1
 64 1152 l 1,0,-1
EndSplineSet
EndChar

StartChar: agave.Uduck
Encoding: 65557 -1 24
Width: 1024
VWidth: 0
Flags: W
LayerCount: 2
Fore
SplineSet
32 1152 m 1,0,-1
 202 1152 l 1,1,-1
 202 527 l 2,2,3
 202 309 202 309 269.5 225 c 128,-1,4
 337 141 337 141 512 141 c 128,-1,5
 687 141 687 141 754.5 225 c 128,-1,6
 822 309 822 309 822 527 c 2,7,-1
 822 1152 l 1,8,-1
 992 1152 l 1,9,-1
 992 527 l 2,10,11
 992 372 992 372 968 270 c 128,-1,12
 944 168 944 168 886.5 103 c 128,-1,13
 829 38 829 38 739 11 c 128,-1,14
 649 -16 649 -16 512 -16 c 128,-1,15
 375 -16 375 -16 285 11 c 128,-1,16
 195 38 195 38 137.5 103 c 128,-1,17
 80 168 80 168 56 270 c 128,-1,18
 32 372 32 372 32 527 c 2,19,-1
 32 1152 l 1,0,-1
EndSplineSet
EndChar

StartChar: agave.Vduck
Encoding: 65558 -1 25
Width: 1024
VWidth: 0
Flags: W
LayerCount: 2
Fore
SplineSet
64 1152 m 1,0,-1
 241 1152 l 1,1,-1
 481 354 l 1,2,-1
 512 177 l 1,3,-1
 543 354 l 1,4,-1
 783 1152 l 1,5,-1
 960 1152 l 1,6,-1
 614 0 l 1,7,-1
 410 0 l 1,8,-1
 64 1152 l 1,0,-1
EndSplineSet
EndChar

StartChar: agave.Wduck
Encoding: 65559 -1 26
Width: 1024
VWidth: 0
Flags: W
LayerCount: 2
Fore
SplineSet
32 1152 m 1,0,-1
 190 1152 l 1,1,-1
 267 245 l 1,2,-1
 461 768 l 1,3,-1
 563 768 l 1,4,-1
 758 241 l 1,5,-1
 834 1152 l 1,6,-1
 992 1152 l 1,7,-1
 896 0 l 1,8,-1
 692 0 l 1,9,-1
 512 486 l 1,10,-1
 332 0 l 1,11,-1
 128 0 l 1,12,-1
 32 1152 l 1,0,-1
EndSplineSet
EndChar

StartChar: agave.Xduck
Encoding: 65560 -1 27
Width: 1024
VWidth: 0
Flags: W
LayerCount: 2
Fore
SplineSet
34 1152 m 1,0,-1
 235 1152 l 1,1,-1
 512 731 l 1,2,-1
 789 1152 l 1,3,-1
 992 1152 l 1,4,-1
 614 576 l 1,5,-1
 992 -0 l 1,6,-1
 789 -0 l 1,7,-1
 512 421 l 1,8,-1
 235 -0 l 1,9,-1
 32 -0 l 1,10,-1
 410 576 l 1,11,-1
 34 1152 l 1,0,-1
EndSplineSet
EndChar

StartChar: agave.Yduck
Encoding: 65561 -1 28
Width: 1024
VWidth: 0
Flags: W
LayerCount: 2
Fore
SplineSet
790 1152 m 1,0,-1
 992 1152 l 1,1,-1
 597 542 l 1,2,-1
 597 0 l 1,3,-1
 427 0 l 1,4,-1
 427 542 l 1,5,-1
 32 1152 l 1,6,-1
 234 1152 l 1,7,-1
 512 723 l 1,8,-1
 790 1152 l 1,0,-1
EndSplineSet
EndChar

StartChar: agave.Zduck
Encoding: 65562 -1 29
Width: 1024
VWidth: 0
Flags: W
LayerCount: 2
Fore
SplineSet
128 1152 m 1,0,-1
 896 1152 l 1,1,-1
 896 995 l 1,2,-1
 290 157 l 1,3,-1
 928 157 l 1,4,-1
 928 0 l 1,5,-1
 96 0 l 1,6,-1
 96 157 l 1,7,-1
 702 995 l 1,8,-1
 128 995 l 1,9,-1
 128 1152 l 1,0,-1
EndSplineSet
EndChar

StartChar: agave.AEduck
Encoding: 65563 -1 30
Width: 1024
VWidth: 0
Flags: W
LayerCount: 2
Fore
SplineSet
396.999023438 1152 m 1,0,-1
 992 1152 l 1,1,-1
 992 995 l 1,2,-1
 682 995 l 1,3,-1
 682 669 l 1,4,-1
 960 669 l 1,5,-1
 960 512 l 1,6,-1
 682 512 l 1,7,-1
 682 157 l 1,8,-1
 992 157 l 1,9,-1
 992 0 l 1,10,-1
 512 0 l 1,11,-1
 512 256 l 1,12,-1
 278 256 l 1,13,-1
 197 0 l 1,14,-1
 32 0 l 1,15,-1
 396.999023438 1152 l 1,0,-1
512 995 m 1,16,-1
 328 413 l 1,17,-1
 512 413 l 1,18,-1
 512 995 l 1,16,-1
EndSplineSet
EndChar

StartChar: agave.Oslashduck
Encoding: 65564 -1 31
Width: 1024
VWidth: 0
Flags: W
LayerCount: 2
Fore
SplineSet
815 1280 m 1,0,-1
 960 1280 l 1,1,-1
 846 1066 l 1,2,3
 1008 927 1008 927 1008 576 c 0,4,5
 1008 413 1008 413 974.5 297 c 128,-1,6
 941 181 941 181 874.5 113 c 128,-1,7
 808 45 808 45 719.5 14.5 c 128,-1,8
 631 -16 631 -16 512 -16 c 0,9,10
 381 -16 381 -16 288 20 c 1,11,-1
 209 -128 l 1,12,-1
 64 -128 l 1,13,-1
 178 86 l 1,14,15
 16 225 16 225 16 576 c 0,16,17
 16 739 16 739 49.5 855 c 128,-1,18
 83 971 83 971 149.5 1039 c 128,-1,19
 216 1107 216 1107 304.5 1137.5 c 128,-1,20
 393 1168 393 1168 512 1168 c 0,21,22
 643 1168 643 1168 736 1132 c 1,23,-1
 815 1280 l 1,0,-1
512 1011 m 0,24,25
 434 1011 434 1011 376 988.5 c 128,-1,26
 318 966 318 966 274 916 c 128,-1,27
 230 866 230 866 208 781 c 128,-1,28
 186 696 186 696 186 576 c 0,29,30
 186 354 186 354 264 248 c 1,31,-1
 658 985 l 1,32,33
 597 1011 597 1011 512 1011 c 0,24,25
760 904 m 1,34,-1
 366 167 l 1,35,36
 427 141 427 141 512 141 c 0,37,38
 590 141 590 141 648 163.5 c 128,-1,39
 706 186 706 186 750 236 c 128,-1,40
 794 286 794 286 816 371 c 128,-1,41
 838 456 838 456 838 576 c 0,42,43
 838 798 838 798 760 904 c 1,34,-1
EndSplineSet
EndChar

StartChar: agave.Ezhduck
Encoding: 65565 -1 32
Width: 1024
VWidth: 0
Flags: W
LayerCount: 2
Fore
SplineSet
896 1152 m 1,0,-1
 896 995 l 1,1,-1
 520 669 l 1,2,3
 723 668 723 668 833.5 595.5 c 128,-1,4
 944 523 944 523 944 376 c 0,5,6
 944 270 944 270 904 195 c 128,-1,7
 864 120 864 120 785.5 76 c 128,-1,8
 707 32 707 32 601.5 12 c 128,-1,9
 496 -8 496 -8 355 -8 c 0,10,11
 284 -8 284 -8 219 -4 c 128,-1,12
 154 -0 154 -0 125 4 c 2,13,-1
 96 8 l 1,14,-1
 96 157 l 1,15,-1
 355 157 l 2,16,17
 560 157 560 157 667 207.5 c 128,-1,18
 774 258 774 258 774 376 c 0,19,20
 774 439 774 439 692.5 475.5 c 128,-1,21
 611 512 611 512 469 512 c 2,22,-1
 280 512 l 1,23,-1
 280 669 l 1,24,-1
 656 995 l 1,25,-1
 128 995 l 1,26,-1
 128 1152 l 1,27,-1
 896 1152 l 1,0,-1
EndSplineSet
EndChar

StartChar: agave.Gammaduck
Encoding: 65566 -1 33
Width: 1024
VWidth: 0
Flags: W
LayerCount: 2
Fore
SplineSet
160 0 m 1,0,-1
 160 1152 l 1,1,-1
 896 1152 l 1,2,-1
 896 995 l 1,3,-1
 330 995 l 1,4,-1
 330 0 l 1,5,-1
 160 0 l 1,0,-1
EndSplineSet
EndChar

StartChar: agave.Ucyrduck
Encoding: 65567 -1 34
Width: 1024
VWidth: 0
Flags: W
LayerCount: 2
Fore
SplineSet
805 1152 m 1,0,-1
 992 1152 l 1,1,-1
 571 233 l 2,2,3
 549 185 549 185 538 162.5 c 128,-1,4
 527 140 527 140 508.5 105.5 c 128,-1,5
 490 71 490 71 477 55.5 c 128,-1,6
 464 40 464 40 445 22.5 c 128,-1,7
 426 5 426 5 405.5 -1.5 c 128,-1,8
 385 -8 385 -8 360 -8 c 0,9,10
 323 -8 323 -8 289 -4 c 128,-1,11
 255 -0 255 -0 239.5 4 c 2,12,-1
 224 8 l 1,13,-1
 224 157 l 1,14,15
 262 157 262 157 277.5 157 c 128,-1,16
 293 157 293 157 314.5 163.5 c 128,-1,17
 336 170 336 170 342.5 175 c 128,-1,18
 349 180 349 180 365 202.5 c 128,-1,19
 381 225 381 225 389.5 243.5 c 128,-1,20
 398 262 398 262 419 308 c 1,21,-1
 32 1152 l 1,22,-1
 219 1152 l 1,23,-1
 512 512 l 1,24,-1
 805 1152 l 1,0,-1
EndSplineSet
EndChar

StartChar: agave.Izhitsaduck
Encoding: 65568 -1 35
Width: 1024
VWidth: 0
Flags: W
LayerCount: 2
Fore
SplineSet
32 1152 m 1,0,-1
 211 1152 l 1,1,-1
 473 354 l 1,2,-1
 512 177 l 1,3,-1
 551 354 l 1,4,-1
 747 951 l 2,5,6
 764 1002 764 1002 772.5 1025 c 128,-1,7
 781 1048 781 1048 796.5 1080.5 c 128,-1,8
 812 1113 812 1113 826.5 1126 c 128,-1,9
 841 1139 841 1139 864.5 1149.5 c 128,-1,10
 888 1160 888 1160 918 1160 c 0,11,12
 947 1160 947 1160 973.5 1156 c 128,-1,13
 1000 1152 1000 1152 1012 1148 c 2,14,-1
 1024 1144 l 1,15,-1
 1024 995 l 1,16,17
 962 995 962 995 947.5 983 c 128,-1,18
 933 971 933 971 909 898 c 2,19,-1
 614 0 l 1,20,-1
 410 0 l 1,21,-1
 32 1152 l 1,0,-1
EndSplineSet
EndChar

StartChar: agave.Schwaduck
Encoding: 65569 -1 36
Width: 1024
VWidth: 0
Flags: W
LayerCount: 2
Fore
SplineSet
406 1160 m 0,0,1
 649 1160 649 1160 792.5 997 c 128,-1,2
 936 834 936 834 936 572 c 128,-1,3
 936 310 936 310 821 147 c 128,-1,4
 706 -16 706 -16 512 -16 c 0,5,6
 319 -16 319 -16 207.5 102 c 128,-1,7
 96 220 96 220 96 424 c 2,8,-1
 96 512 l 2,9,10
 96 601 96 601 133 635 c 128,-1,11
 170 669 170 669 266 669 c 2,12,-1
 758 669 l 1,13,14
 758 676 758 676 757 687.5 c 128,-1,15
 756 699 756 699 749.5 733 c 128,-1,16
 743 767 743 767 730.5 798 c 128,-1,17
 718 829 718 829 692 866.5 c 128,-1,18
 666 904 666 904 630 931 c 128,-1,19
 594 958 594 958 536 976.5 c 128,-1,20
 478 995 478 995 406 995 c 2,21,-1
 184 995 l 1,22,-1
 184 1144 l 1,23,24
 269 1160 269 1160 406 1160 c 0,0,1
266 512 m 1,25,-1
 266 424 l 2,26,27
 266 293 266 293 332 217 c 128,-1,28
 398 141 398 141 512 141 c 0,29,30
 562 141 562 141 603 161.5 c 128,-1,31
 644 182 644 182 668.5 214.5 c 128,-1,32
 693 247 693 247 711.5 286.5 c 128,-1,33
 730 326 730 326 738.5 366 c 128,-1,34
 747 406 747 406 752 438.5 c 128,-1,35
 757 471 757 471 757.5 491.5 c 2,36,-1
 758 512 l 1,37,-1
 266 512 l 1,25,-1
EndSplineSet
EndChar

StartChar: agave.Zeduck
Encoding: 65570 -1 37
Width: 1024
VWidth: 0
Flags: W
LayerCount: 2
Fore
SplineSet
160 1144 m 1,0,1
 265 1160 265 1160 435 1160 c 0,2,3
 653 1160 653 1160 766.5 1084.5 c 128,-1,4
 880 1009 880 1009 880 832 c 0,5,6
 880 782 880 782 862.5 741 c 128,-1,7
 845 700 845 700 820 676.5 c 128,-1,8
 795 653 795 653 770 636.5 c 128,-1,9
 745 620 745 620 727.5 614.5 c 2,10,-1
 710 609 l 1,11,12
 718 607 718 607 731.5 602 c 128,-1,13
 745 597 745 597 780 575.5 c 128,-1,14
 815 554 815 554 841.5 526 c 128,-1,15
 868 498 868 498 890 447 c 128,-1,16
 912 396 912 396 912 334 c 0,17,18
 912 150 912 150 790.5 71 c 128,-1,19
 669 -8 669 -8 435 -8 c 0,20,21
 351 -8 351 -8 274 -4 c 128,-1,22
 197 -0 197 -0 162.5 4 c 2,23,-1
 128 8 l 1,24,-1
 128 157 l 1,25,-1
 435 157 l 2,26,27
 586 157 586 157 664 197.5 c 128,-1,28
 742 238 742 238 742 334 c 128,-1,29
 742 430 742 430 655.5 471 c 128,-1,30
 569 512 569 512 402 512 c 2,31,-1
 224 512 l 1,32,-1
 224 669 l 1,33,-1
 390 669 l 2,34,35
 547 669 547 669 628.5 706.5 c 128,-1,36
 710 744 710 744 710 832 c 128,-1,37
 710 920 710 920 640 957.5 c 128,-1,38
 570 995 570 995 435 995 c 2,39,-1
 160 995 l 1,40,-1
 160 1144 l 1,0,1
EndSplineSet
EndChar

StartChar: agave.Otildeduck
Encoding: 65571 -1 38
Width: 1024
VWidth: 0
Flags: W
LayerCount: 2
Fore
SplineSet
512 1168 m 128,-1,1
 631 1168 631 1168 719.5 1137.5 c 128,-1,2
 808 1107 808 1107 874.5 1039 c 128,-1,3
 941 971 941 971 974.5 855 c 128,-1,4
 1008 739 1008 739 1008 576 c 128,-1,5
 1008 413 1008 413 974.5 297 c 128,-1,6
 941 181 941 181 874.5 113 c 128,-1,7
 808 45 808 45 719.5 14.5 c 128,-1,8
 631 -16 631 -16 512 -16 c 128,-1,9
 393 -16 393 -16 304.5 14.5 c 128,-1,10
 216 45 216 45 149.5 113 c 128,-1,11
 83 181 83 181 49.5 297 c 128,-1,12
 16 413 16 413 16 576 c 128,-1,13
 16 739 16 739 49.5 855 c 128,-1,14
 83 971 83 971 149.5 1039 c 128,-1,15
 216 1107 216 1107 304.5 1137.5 c 128,-1,0
 393 1168 393 1168 512 1168 c 128,-1,1
512 1011 m 128,-1,17
 369 1011 369 1011 287.5 931.5 c 128,-1,18
 206 852 206 852 190 669 c 1,19,-1
 834 669 l 1,20,21
 818 852 818 852 736.5 931.5 c 128,-1,16
 655 1011 655 1011 512 1011 c 128,-1,17
188 512 m 1,22,23
 199 313 199 313 281.5 227 c 128,-1,24
 364 141 364 141 512 141 c 128,-1,25
 660 141 660 141 742.5 227 c 128,-1,26
 825 313 825 313 836 512 c 1,27,-1
 188 512 l 1,22,23
EndSplineSet
EndChar

StartChar: agave.Ecyrduck
Encoding: 65572 -1 39
Width: 1024
VWidth: 0
Flags: W
LayerCount: 2
Fore
SplineSet
359 1160 m 0,0,1
 492 1160 492 1160 590.5 1130 c 128,-1,2
 689 1100 689 1100 763 1033 c 128,-1,3
 837 966 837 966 874.5 851.5 c 128,-1,4
 912 737 912 737 912 576 c 0,5,6
 912 305 912 305 763.5 148.5 c 128,-1,7
 615 -8 615 -8 359 -8 c 0,8,9
 295 -8 295 -8 237.5 -4 c 128,-1,10
 180 -0 180 -0 154 4 c 2,11,-1
 128 8 l 1,12,-1
 128 157 l 1,13,-1
 359 157 l 2,14,15
 518 157 518 157 616.5 251 c 128,-1,16
 715 345 715 345 731 512 c 1,17,-1
 192 512 l 1,18,-1
 192 669 l 1,19,-1
 729 669 l 1,20,21
 710 843 710 843 616.5 919 c 128,-1,22
 523 995 523 995 359 995 c 2,23,-1
 128 995 l 1,24,-1
 128 1144 l 1,25,26
 216 1160 216 1160 359 1160 c 0,0,1
EndSplineSet
EndChar

StartChar: agave.Cheduck
Encoding: 65573 -1 40
Width: 1024
VWidth: 0
Flags: W
LayerCount: 2
Fore
SplineSet
896 0 m 1,0,-1
 726 0 l 1,1,-1
 726 520 l 1,2,3
 644 504 644 504 512 504 c 0,4,5
 324 504 324 504 226 595.5 c 128,-1,6
 128 687 128 687 128 902 c 2,7,-1
 128 1152 l 1,8,-1
 298 1152 l 1,9,-1
 298 902 l 2,10,11
 298 776 298 776 352.5 722.5 c 128,-1,12
 407 669 407 669 512 669 c 2,13,-1
 726 669 l 1,14,-1
 726 1152 l 1,15,-1
 896 1152 l 1,16,-1
 896 0 l 1,0,-1
EndSplineSet
EndChar

StartChar: agave.Yeruduck
Encoding: 65574 -1 41
Width: 1024
VWidth: 0
Flags: W
LayerCount: 2
Fore
SplineSet
64 1152 m 1,0,-1
 234 1152 l 1,1,-1
 234 768 l 1,2,-1
 340 768 l 2,3,4
 507 768 507 768 594.5 678.5 c 128,-1,5
 682 589 682 589 682 380 c 0,6,7
 682 172 682 172 595.5 86 c 128,-1,8
 509 0 509 0 340 0 c 2,9,-1
 64 0 l 1,10,-1
 64 1152 l 1,0,-1
790 1152 m 1,11,-1
 960 1152 l 1,12,-1
 960 0 l 1,13,-1
 790 0 l 1,14,-1
 790 1152 l 1,11,-1
234 611 m 1,15,-1
 234 157 l 1,16,-1
 340 157 l 2,17,18
 425 157 425 157 468.5 207 c 128,-1,19
 512 257 512 257 512 380 c 0,20,21
 512 504 512 504 468 557.5 c 128,-1,22
 424 611 424 611 340 611 c 2,23,-1
 234 611 l 1,15,-1
EndSplineSet
EndChar

StartChar: agave.Ohornduck
Encoding: 65575 -1 42
Width: 1024
VWidth: 0
Flags: W
LayerCount: 2
Fore
SplineSet
854 1280 m 1,0,-1
 1024 1280 l 1,1,2
 1024 1070 1024 1070 926 970 c 1,3,4
 1008 829 1008 829 1008 576 c 0,5,6
 1008 413 1008 413 974.5 297 c 128,-1,7
 941 181 941 181 874.5 113 c 128,-1,8
 808 45 808 45 719.5 14.5 c 128,-1,9
 631 -16 631 -16 512 -16 c 128,-1,10
 393 -16 393 -16 304.5 14.5 c 128,-1,11
 216 45 216 45 149.5 113 c 128,-1,12
 83 181 83 181 49.5 297 c 128,-1,13
 16 413 16 413 16 576 c 128,-1,14
 16 739 16 739 49.5 855 c 128,-1,15
 83 971 83 971 149.5 1039 c 128,-1,16
 216 1107 216 1107 304.5 1137.5 c 128,-1,17
 393 1168 393 1168 512 1168 c 0,18,19
 709 1168 709 1168 823 1085 c 1,20,21
 854 1151 854 1151 854 1280 c 1,0,-1
512 1011 m 128,-1,23
 434 1011 434 1011 376 988.5 c 128,-1,24
 318 966 318 966 274 916 c 128,-1,25
 230 866 230 866 208 781 c 128,-1,26
 186 696 186 696 186 576 c 128,-1,27
 186 456 186 456 208 371 c 128,-1,28
 230 286 230 286 274 236 c 128,-1,29
 318 186 318 186 376 163.5 c 128,-1,30
 434 141 434 141 512 141 c 128,-1,31
 590 141 590 141 648 163.5 c 128,-1,32
 706 186 706 186 750 236 c 128,-1,33
 794 286 794 286 816 371 c 128,-1,34
 838 456 838 456 838 576 c 128,-1,35
 838 696 838 696 816 781 c 128,-1,36
 794 866 794 866 750 916 c 128,-1,37
 706 966 706 966 648 988.5 c 128,-1,22
 590 1011 590 1011 512 1011 c 128,-1,23
EndSplineSet
EndChar

StartChar: agave.Uhornduck
Encoding: 65576 -1 43
Width: 1024
VWidth: 0
Flags: W
LayerCount: 2
Fore
SplineSet
854 1280 m 1,0,-1
 1024 1280 l 1,1,2
 1024 1199 1024 1199 1008.5 1133.5 c 128,-1,3
 993 1068 993 1068 970 1029 c 128,-1,4
 947 990 947 990 916 962 c 128,-1,5
 885 934 885 934 860.5 922 c 128,-1,6
 836 910 836 910 810 903 c 1,7,-1
 810 576 l 2,8,9
 810 413 810 413 782.5 297 c 128,-1,10
 755 181 755 181 701 113 c 128,-1,11
 647 45 647 45 574.5 14.5 c 128,-1,12
 502 -16 502 -16 405 -16 c 128,-1,13
 308 -16 308 -16 235.5 14.5 c 128,-1,14
 163 45 163 45 109 113 c 128,-1,15
 55 181 55 181 27.5 297 c 128,-1,16
 0 413 0 413 0 576 c 2,17,-1
 0 1152 l 1,18,-1
 170 1152 l 1,19,-1
 170 576 l 1,20,21
 150 141 150 141 405 141 c 0,22,23
 520 141 520 141 580 241.5 c 128,-1,24
 640 342 640 342 640 576 c 2,25,-1
 640 1152 l 1,26,-1
 810 1152 l 1,27,-1
 810 1062 l 1,28,29
 854 1123 854 1123 854 1280 c 1,0,-1
EndSplineSet
EndChar

StartChar: agave.Omegaduck
Encoding: 65577 -1 44
Width: 1024
VWidth: 0
Flags: W
LayerCount: 2
Fore
SplineSet
512 1168 m 132,-1,1
 623 1168 623 1168 706 1140.5 c 132,-1,2
 789 1113 789 1113 851 1051.5 c 132,-1,3
 913 990 913 990 944.5 885.5 c 132,-1,4
 976 781 976 781 976 634 c 4,5,6
 976 576 976 576 961.5 518.5 c 132,-1,7
 947 461 947 461 924 415.5 c 132,-1,8
 901 370 901 370 873.5 328 c 132,-1,9
 846 286 846 286 818.5 255.5 c 132,-1,10
 791 225 791 225 768 202.5 c 132,-1,11
 745 180 745 180 730.5 168.5 c 6,12,-1
 716 157 l 5,13,-1
 992 157 l 5,14,-1
 992 0 l 5,15,-1
 614 0 l 5,16,-1
 614 256 l 5,17,18
 622 260 622 260 635 268 c 132,-1,19
 648 276 648 276 681 307.5 c 132,-1,20
 714 339 714 339 739 378.5 c 132,-1,21
 764 418 764 418 785 486.5 c 132,-1,22
 806 555 806 555 806 634 c 4,23,24
 806 837 806 837 731 924 c 132,-1,25
 656 1011 656 1011 512 1011 c 132,-1,26
 368 1011 368 1011 293 924 c 132,-1,27
 218 837 218 837 218 634 c 4,28,29
 218 555 218 555 238 487 c 132,-1,30
 258 419 258 419 286 378 c 132,-1,31
 314 337 314 337 342 308 c 132,-1,32
 370 279 370 279 390 267.5 c 6,33,-1
 410 256 l 5,34,-1
 410 0 l 5,35,-1
 32 0 l 5,36,-1
 32 157 l 5,37,-1
 308 157 l 5,38,39
 297 165 297 165 279.5 179.5 c 132,-1,40
 262 194 262 194 217.5 243 c 132,-1,41
 173 292 173 292 138.5 344 c 132,-1,42
 104 396 104 396 76 475.5 c 132,-1,43
 48 555 48 555 48 634 c 4,44,45
 48 781 48 781 79.5 885.5 c 132,-1,46
 111 990 111 990 173 1051.5 c 132,-1,47
 235 1113 235 1113 318 1140.5 c 132,-1,0
 401 1168 401 1168 512 1168 c 132,-1,1
EndSplineSet
EndChar

StartChar: agave.diaresisduck
Encoding: 65578 -1 45
Width: 1024
VWidth: 0
Flags: W
LayerCount: 2
Fore
SplineSet
112 1392 m 128,-1,1
 158 1392 158 1392 191 1359 c 128,-1,2
 224 1326 224 1326 224 1280 c 128,-1,3
 224 1234 224 1234 191 1201 c 128,-1,4
 158 1168 158 1168 112 1168 c 128,-1,5
 66 1168 66 1168 33 1201 c 128,-1,6
 0 1234 0 1234 0 1280 c 128,-1,7
 0 1326 0 1326 33 1359 c 128,-1,0
 66 1392 66 1392 112 1392 c 128,-1,1
912 1392 m 128,-1,9
 958 1392 958 1392 991 1359 c 128,-1,10
 1024 1326 1024 1326 1024 1280 c 128,-1,11
 1024 1234 1024 1234 991 1201 c 128,-1,12
 958 1168 958 1168 912 1168 c 128,-1,13
 866 1168 866 1168 833 1201 c 128,-1,14
 800 1234 800 1234 800 1280 c 128,-1,15
 800 1326 800 1326 833 1359 c 128,-1,8
 866 1392 866 1392 912 1392 c 128,-1,9
EndSplineSet
EndChar

StartChar: exclam
Encoding: 33 33 46
Width: 1024
Flags: HW
LayerCount: 2
Fore
SplineSet
386.139648438 256 m 0
 728.139648438 256 l 0
 683 0 l 0
 341 0 l 0
 386.139648438 256 l 0
609.698242188 1280 m 0
 865.698242188 1280 l 0
 797.989257812 896 l 0
 704.279296875 512 l 0
 500.279296875 512 l 0
 541.989257812 896 l 0
 609.698242188 1280 l 0
EndSplineSet
EndChar

StartChar: quotedbl
Encoding: 34 34 47
Width: 1024
Flags: HW
LayerCount: 2
Fore
SplineSet
830.698242188 1280 m 0
 1086.69824219 1280 l 0
 961.418945312 768 l 0
 775.418945312 768 l 0
 830.698242188 1280 l 0
388.698242188 1280 m 0
 644.698242188 1280 l 0
 519.418945312 768 l 0
 333.418945312 768 l 0
 388.698242188 1280 l 0
EndSplineSet
EndChar

StartChar: numbersign
Encoding: 35 35 48
Width: 1024
Flags: HW
LayerCount: 2
Fore
SplineSet
753.474609375 791 m 0
 549.474609375 791 l 0
 496.223632812 489 l 0
 700.223632812 489 l 0
 753.474609375 791 l 0
431.698242188 1280 m 0
 635.698242188 1280 l 0
 582.271484375 977 l 0
 786.271484375 977 l 0
 839.698242188 1280 l 0
 1043.69824219 1280 l 0
 990.271484375 977 l 0
 1132.27148438 977 l 0
 1099.47460938 791 l 0
 957.474609375 791 l 0
 904.223632812 489 l 0
 1046.22363281 489 l 0
 1013.42675781 303 l 0
 871.426757812 303 l 0
 818 0 l 0
 614 0 l 0
 667.426757812 303 l 0
 463.426757812 303 l 0
 410 0 l 0
 206 0 l 0
 259.426757812 303 l 0
 117.426757812 303 l 0
 150.223632812 489 l 0
 292.223632812 489 l 0
 345.474609375 791 l 0
 203.474609375 791 l 0
 236.271484375 977 l 0
 378.271484375 977 l 0
 431.698242188 1280 l 0
EndSplineSet
EndChar

StartChar: dollar
Encoding: 36 36 49
Width: 1024
Flags: HW
LayerCount: 2
Fore
SplineSet
649.216796875 540 m 0
 601.608398438 270 l 0
 769.545898438 298 769.545898438 298 784.885742188 385 c 0
 795.465820312 445 795.465820312 445 759.63671875 480 c 0
 723.80859375 515 723.80859375 515 649.216796875 540 c 0
647.561523438 1007 m 0
 511.448242188 978 511.448242188 978 496.8125 895 c 0
 487.291015625 841 487.291015625 841 515.383789062 807.5 c 0
 543.477539062 774 543.477539062 774 602.421875 751 c 0
 647.561523438 1007 l 0
637.381835938 1437 m 0
 893.381835938 1437 l 0
 854.766601562 1218 l 0
 897.766601562 1218 l 0
 956.766601562 1218 956.766601562 1218 1009.06054688 1214 c 0
 1061.35546875 1210 1061.35546875 1210 1084.65039062 1206 c 0
 1107.9453125 1202 l 0
 1076.55859375 1024 l 0
 820.55859375 1024 l 0
 763.60546875 701 l 0
 813.959960938 686 813.959960938 686 849.403320312 671.5 c 0
 884.846679688 657 884.846679688 657 923.262695312 631 c 0
 961.677734375 605 961.677734375 605 982.711914062 574 c 0
 1003.74511719 543 1003.74511719 543 1013.19335938 494.5 c 0
 1022.64160156 446 1022.64160156 446 1011.88574219 385 c 0
 990.374023438 263 990.374023438 263 900.178710938 191 c 0
 809.983398438 119 809.983398438 119 655.516601562 88 c 0
 612.31640625 -157 l 0
 356.31640625 -157 l 0
 394.932617188 62 l 0
 343.932617188 62 l 0
 278.932617188 62 278.932617188 62 220.637695312 66 c 0
 162.342773438 70 162.342773438 70 136.047851562 74 c 0
 109.75390625 78 l 0
 141.139648438 256 l 0
 429.139648438 256 l 0
 487.680664062 588 l 0
 431.030273438 607 431.030273438 607 391.733398438 628 c 0
 352.436523438 649 352.436523438 649 317.107421875 684 c 0
 281.779296875 719 281.779296875 719 269.624023438 772 c 0
 257.469726562 825 257.469726562 825 269.8125 895 c 0
 310.19140625 1124 310.19140625 1124 593.65234375 1189 c 0
 637.381835938 1437 l 0
EndSplineSet
EndChar

StartChar: percent
Encoding: 37 37 50
Width: 1024
Flags: HW
LayerCount: 2
Fore
SplineSet
696.424804688 320 m 0
 984.424804688 320 l 0
 928 0 l 0
 640 0 l 0
 696.424804688 320 l 0
1185.69824219 1280 m 0
 318 0 l 0
 64 0 l 0
 931.698242188 1280 l 0
 1185.69824219 1280 l 0
321.698242188 1280 m 0
 609.698242188 1280 l 0
 553.2734375 960 l 0
 265.2734375 960 l 0
 321.698242188 1280 l 0
EndSplineSet
EndChar

StartChar: ampersand
Encoding: 38 38 51
Width: 1024
Flags: HW
LayerCount: 2
Fore
SplineSet
501.622070312 582 m 0
 451.622070312 582 451.622070312 582 413.27734375 529 c 0
 374.931640625 476 374.931640625 476 358.709960938 384 c 0
 342.487304688 292 342.487304688 292 392.142578125 239 c 0
 441.796875 186 441.796875 186 544.796875 186 c 0
 626.796875 186 l 0
 616.552734375 247 616.552734375 247 631.541015625 332 c 0
 675.622070312 582 l 0
 501.622070312 582 l 0
751.404296875 1284 m 0
 780.404296875 1284 780.404296875 1284 806.05078125 1282 c 0
 831.698242188 1280 831.698242188 1280 843.345703125 1278 c 0
 854.993164062 1276 l 0
 822.901367188 1094 l 0
 717.901367188 1094 l 0
 634.901367188 1094 634.901367188 1094 584.7890625 1056.5 c 0
 534.676757812 1019 534.676757812 1019 519.16015625 931 c 0
 505.759765625 855 505.759765625 855 520.588867188 811.5 c 0
 535.418945312 768 535.418945312 768 573.418945312 768 c 0
 708.418945312 768 l 0
 743.861328125 969 l 0
 970.861328125 969 l 0
 935.418945312 768 l 0
 1095.41894531 768 l 0
 1062.62207031 582 l 0
 902.622070312 582 l 0
 858.541015625 332 l 0
 843.905273438 249 843.905273438 249 878.145507812 213.5 c 0
 912.385742188 178 912.385742188 178 991.385742188 178 c 0
 958.58984375 -8 l 0
 687.58984375 -8 687.58984375 -8 636.096679688 148 c 0
 510.58984375 -8 l 0
 290.58984375 -8 290.58984375 -8 192.546875 82.5 c 0
 94.5048828125 173 94.5048828125 173 131.709960938 384 c 0
 144.228515625 455 144.228515625 455 170.484375 516 c 0
 196.740234375 577 196.740234375 577 225.676757812 613.5 c 0
 254.612304688 650 254.612304688 650 281.197265625 676 c 0
 307.78125 702 307.78125 702 325.044921875 712 c 0
 342.307617188 722 l 0
 338.661132812 724 338.661132812 724 333.954101562 728.5 c 0
 329.248046875 733 329.248046875 733 317.333007812 750.5 c 0
 305.418945312 768 305.418945312 768 297.709960938 789.5 c 0
 290.000976562 811 290.000976562 811 287.201171875 849 c 0
 284.40234375 887 284.40234375 887 292.16015625 931 c 0
 325.662109375 1121 325.662109375 1121 441.533203125 1202.5 c 0
 557.404296875 1284 557.404296875 1284 751.404296875 1284 c 0
EndSplineSet
EndChar

StartChar: quotesingle
Encoding: 39 39 52
Width: 1024
Flags: HW
LayerCount: 2
Fore
SplineSet
609.698242188 1280 m 0
 865.698242188 1280 l 0
 740.418945312 768 l 0
 554.418945312 768 l 0
 609.698242188 1280 l 0
EndSplineSet
EndChar

StartChar: parenleft
Encoding: 40 40 53
Width: 1024
Flags: HW
LayerCount: 2
Fore
SplineSet
880.381835938 1437 m 0
 1107.38183594 1437 l 0
 1099.5 1432 1099.5 1432 1084.6484375 1421.5 c 0
 1069.79785156 1411 1069.79785156 1411 1025.68554688 1373.5 c 0
 981.573242188 1336 981.573242188 1336 940.314453125 1292 c 0
 899.055664062 1248 899.055664062 1248 844.595703125 1174.5 c 0
 790.135742188 1101 790.135742188 1101 746.353515625 1020 c 0
 702.571289062 939 702.571289062 939 662.146484375 826 c 0
 621.720703125 713 621.720703125 713 600.208984375 591 c 0
 578.697265625 469 578.697265625 469 578.360351562 356.5 c 0
 578.0234375 244 578.0234375 244 595.4765625 161.5 c 0
 612.9296875 79 612.9296875 79 638.322265625 7.5 c 0
 663.71484375 -64 663.71484375 -64 693.427734375 -111 c 0
 723.140625 -158 723.140625 -158 749.145507812 -192 c 0
 775.150390625 -226 775.150390625 -226 792.004882812 -241 c 0
 808.860351562 -256 l 0
 581.860351562 -256 l 0
 574.7421875 -251 574.7421875 -251 562.59375 -240.5 c 0
 550.444335938 -230 550.444335938 -230 517.056640625 -192.5 c 0
 483.668945312 -155 483.668945312 -155 454.927734375 -111 c 0
 426.186523438 -67 426.186523438 -67 394.146484375 6.5 c 0
 362.106445312 80 362.106445312 80 344.4765625 161.5 c 0
 326.84765625 243 326.84765625 243 324.772460938 356 c 0
 322.697265625 469 322.697265625 469 344.208984375 591 c 0
 365.720703125 713 365.720703125 713 407.057617188 825.5 c 0
 448.39453125 938 448.39453125 938 496.94140625 1020.5 c 0
 545.48828125 1103 545.48828125 1103 599.595703125 1174.5 c 0
 653.703125 1246 653.703125 1246 702.991210938 1293 c 0
 752.278320312 1340 752.278320312 1340 792.185546875 1373.5 c 0
 832.091796875 1407 832.091796875 1407 856.237304688 1422 c 0
 880.381835938 1437 l 0
EndSplineSet
EndChar

StartChar: parenright
Encoding: 41 41 54
Width: 1024
Flags: HW
LayerCount: 2
Fore
SplineSet
650.381835938 1437 m 0
 657.5 1432 657.5 1432 669.6484375 1421.5 c 0
 681.797851562 1411 681.797851562 1411 715.185546875 1373.5 c 0
 748.573242188 1336 748.573242188 1336 777.314453125 1292 c 0
 806.055664062 1248 806.055664062 1248 838.095703125 1174.5 c 0
 870.135742188 1101 870.135742188 1101 887.853515625 1020 c 0
 905.571289062 939 905.571289062 939 907.646484375 826 c 0
 909.720703125 713 909.720703125 713 888.208984375 591 c 0
 866.697265625 469 866.697265625 469 825.360351562 356.5 c 0
 784.0234375 244 784.0234375 244 735.4765625 161.5 c 0
 686.9296875 79 686.9296875 79 632.822265625 7.5 c 0
 578.71484375 -64 578.71484375 -64 529.427734375 -111 c 0
 480.140625 -158 480.140625 -158 440.145507812 -192 c 0
 400.150390625 -226 400.150390625 -226 376.004882812 -241 c 0
 351.860351562 -256 l 0
 124.860351562 -256 l 0
 132.7421875 -251 132.7421875 -251 147.59375 -240.5 c 0
 162.444335938 -230 162.444335938 -230 206.556640625 -192.5 c 0
 250.668945312 -155 250.668945312 -155 291.927734375 -111 c 0
 333.186523438 -67 333.186523438 -67 387.646484375 6.5 c 0
 442.106445312 80 442.106445312 80 485.9765625 161.5 c 0
 529.84765625 243 529.84765625 243 570.272460938 356 c 0
 610.697265625 469 610.697265625 469 632.208984375 591 c 0
 653.720703125 713 653.720703125 713 654.057617188 825.5 c 0
 654.39453125 938 654.39453125 938 636.94140625 1020.5 c 0
 619.48828125 1103 619.48828125 1103 594.095703125 1174.5 c 0
 568.703125 1246 568.703125 1246 538.991210938 1293 c 0
 509.278320312 1340 509.278320312 1340 483.185546875 1373.5 c 0
 457.091796875 1407 457.091796875 1407 440.237304688 1422 c 0
 423.381835938 1437 l 0
 650.381835938 1437 l 0
EndSplineSet
EndChar

StartChar: asterisk
Encoding: 42 42 55
Width: 1024
Flags: HW
LayerCount: 2
Fore
SplineSet
609.698242188 1280 m 0
 865.698242188 1280 l 0
 744.807617188 929 l 0
 1090.72558594 1093 l 0
 1126.87792969 850 l 0
 765.532226562 797 l 0
 975.451171875 547 l 0
 743.001953125 397 l 0
 638.426757812 717 l 0
 421.001953125 397 l 0
 241.451171875 547 l 0
 539.532226562 797 l 0
 196.877929688 850 l 0
 318.725585938 1093 l 0
 606.807617188 929 l 0
 609.698242188 1280 l 0
EndSplineSet
EndChar

StartChar: plus
Encoding: 43 43 56
Width: 1024
Flags: HW
LayerCount: 2
Fore
SplineSet
589.84375 1088 m 0
 817.84375 1088 l 0
 756.834960938 742 l 0
 1090.83496094 742 l 0
 1054.86425781 538 l 0
 720.864257812 538 l 0
 659.854492188 192 l 0
 431.854492188 192 l 0
 492.864257812 538 l 0
 158.864257812 538 l 0
 194.834960938 742 l 0
 528.834960938 742 l 0
 589.84375 1088 l 0
EndSplineSet
EndChar

StartChar: comma
Encoding: 44 44 57
Width: 1024
Flags: HW
LayerCount: 2
Fore
SplineSet
414.3515625 416 m 0
 756.3515625 416 l 0
 711.211914062 160 l 0
 710.331054688 155 710.331054688 155 707.744140625 146 c 0
 705.157226562 137 705.157226562 137 690.54296875 108 c 0
 675.9296875 79 675.9296875 79 654.375976562 47.5 c 0
 632.821289062 16 632.821289062 16 589.357421875 -32 c 0
 545.893554688 -80 545.893554688 -80 489.4296875 -128 c 0
 338.860351562 -256 l 0
 231.314453125 -140 l 0
 381.883789062 -12 l 0
 448.934570312 45 448.934570312 45 488.516601562 88 c 0
 528.098632812 131 528.098632812 131 534.155273438 145.5 c 0
 540.211914062 160 l 0
 369.211914062 160 l 0
 414.3515625 416 l 0
EndSplineSet
EndChar

StartChar: period
Encoding: 46 46 58
Width: 1024
Flags: HW
LayerCount: 2
Fore
SplineSet
683 0 m 0
 341 0 l 0
 397.424804688 320 l 0
 739.424804688 320 l 0
 683 0 l 0
EndSplineSet
EndChar

StartChar: slash
Encoding: 47 47 59
Width: 1024
Flags: HW
LayerCount: 2
Fore
SplineSet
1149.38183594 1437 m 0
 349.860351562 -256 l 0
 82.8603515625 -256 l 0
 882.381835938 1437 l 0
 1149.38183594 1437 l 0
EndSplineSet
EndChar

StartChar: zero
Encoding: 48 48 60
Width: 1024
Flags: HW
LayerCount: 2
Fore
SplineSet
554.418945312 768 m 0
 740.418945312 768 l 0
 695.279296875 512 l 0
 509.279296875 512 l 0
 554.418945312 768 l 0
707.72265625 1110 m 0
 625.72265625 1110 625.72265625 1110 556.505859375 984 c 0
 487.288085938 858 487.288085938 858 448.849609375 640 c 0
 410.41015625 422 410.41015625 422 435.192382812 296 c 0
 459.975585938 170 459.975585938 170 541.975585938 170 c 0
 623.975585938 170 623.975585938 170 693.192382812 296 c 0
 762.41015625 422 762.41015625 422 800.849609375 640 c 0
 839.288085938 858 839.288085938 858 814.505859375 984 c 0
 789.72265625 1110 789.72265625 1110 707.72265625 1110 c 0
740.51953125 1296 m 0
 940.51953125 1296 940.51953125 1296 1025.48632812 1120 c 0
 1110.453125 944 1110.453125 944 1056.84960938 640 c 0
 1003.24609375 336 1003.24609375 336 856.211914062 160 c 0
 709.178710938 -16 709.178710938 -16 509.178710938 -16 c 0
 309.178710938 -16 309.178710938 -16 224.211914062 160 c 0
 139.24609375 336 139.24609375 336 192.849609375 640 c 0
 246.453125 944 246.453125 944 393.486328125 1120 c 0
 540.51953125 1296 540.51953125 1296 740.51953125 1296 c 0
EndSplineSet
EndChar

StartChar: one
Encoding: 49 49 61
Width: 1024
Flags: HW
LayerCount: 2
Fore
SplineSet
700.698242188 1280 m 0
 956.698242188 1280 l 0
 731 0 l 0
 475 0 l 0
 649.740234375 991 l 0
 405.064453125 783 l 0
 286.631835938 928 l 0
 700.698242188 1280 l 0
EndSplineSet
EndChar

StartChar: two
Encoding: 50 50 62
Width: 1024
Flags: HW
LayerCount: 2
Fore
SplineSet
740.51953125 1296 m 0
 910.51953125 1296 910.51953125 1296 992.151367188 1197.5 c 0
 1073.78320312 1099 1073.78320312 1099 1043.984375 930 c 0
 1037.70703125 894.40234375 1037.70703125 894.40234375 1026.01757812 861.463867188 c 0
 1014.328125 828.525390625 1014.328125 828.525390625 991.780273438 792.084960938 c 0
 969.232421875 755.645507812 969.232421875 755.645507812 950.248046875 728.359375 c 0
 931.262695312 701.073242188 931.262695312 701.073242188 891.9921875 656.711914062 c 0
 852.721679688 612.349609375 852.721679688 612.349609375 827.216796875 584.973632812 c 0
 801.711914062 557.59765625 801.711914062 557.59765625 747.719726562 500.908203125 c 0
 447.796875 186 l 0
 928.796875 186 l 0
 896 0 l 0
 128 0 l 0
 160.796875 186 l 0
 592.849609375 640 l 0
 661.544921875 712 661.544921875 712 691.627929688 746.5 c 0
 721.7109375 781 721.7109375 781 750.439453125 830.5 c 0
 779.16796875 880 779.16796875 880 787.984375 930 c 0
 802.619140625 1013 802.619140625 1013 781.170898438 1061.5 c 0
 759.72265625 1110 759.72265625 1110 707.72265625 1110 c 0
 648.72265625 1110 648.72265625 1110 605.670898438 1061.5 c 0
 562.619140625 1013 562.619140625 1013 547.984375 930 c 0
 291.984375 930 l 0
 321.783203125 1099 321.783203125 1099 442.151367188 1197.5 c 0
 562.51953125 1296 562.51953125 1296 740.51953125 1296 c 0
EndSplineSet
EndChar

StartChar: three
Encoding: 51 51 63
Width: 1024
Flags: HW
LayerCount: 2
Fore
SplineSet
564.109375 1288 m 0
 694.109375 1288 694.109375 1288 788.0234375 1270.5 c 0
 881.9375 1253 881.9375 1253 947.560546875 1214 c 0
 1013.18457031 1175 1013.18457031 1175 1038.37011719 1108 c 0
 1063.55664062 1041 1063.55664062 1041 1046.80566406 946 c 0
 1036.93066406 890 1036.93066406 890 1012.3203125 844 c 0
 987.708984375 798 987.708984375 798 960.124023438 772 c 0
 932.540039062 746 932.540039062 746 906.366210938 728 c 0
 880.192382812 710 880.192382812 710 862.545898438 703.5 c 0
 844.900390625 697 l 0
 852.37109375 694 852.37109375 694 863.901367188 688.5 c 0
 875.431640625 683 875.431640625 683 904.111328125 658.5 c 0
 932.791015625 634 932.791015625 634 952.237304688 602.5 c 0
 971.682617188 571 971.682617188 571 981.8671875 512.5 c 0
 992.052734375 454 992.052734375 454 979.709960938 384 c 0
 942.504882812 173 942.504882812 173 778.046875 82.5 c 0
 613.58984375 -8 613.58984375 -8 328.58984375 -8 c 0
 272.58984375 -8 272.58984375 -8 222.794921875 -4 c 0
 173 0 173 0 151.205078125 4 c 0
 129.41015625 8 l 0
 160.796875 186 l 0
 362.796875 186 l 0
 522.796875 186 522.796875 186 613.819335938 231.5 c 0
 704.842773438 277 704.842773438 277 723.709960938 384 c 0
 739.931640625 476 739.931640625 476 683.27734375 529 c 0
 626.622070312 582 626.622070312 582 511.622070312 582 c 0
 358.622070312 582 l 0
 391.418945312 768 l 0
 532.418945312 768 l 0
 637.418945312 768 637.418945312 768 706.8828125 816 c 0
 776.346679688 864 776.346679688 864 790.805664062 946 c 0
 804.911132812 1026 804.911132812 1026 737.40625 1060 c 0
 669.901367188 1094 669.901367188 1094 529.901367188 1094 c 0
 352.901367188 1094 l 0
 384.288085938 1272 l 0
 455.109375 1288 455.109375 1288 564.109375 1288 c 0
EndSplineSet
EndChar

StartChar: four
Encoding: 52 52 64
Width: 1024
Flags: HW
LayerCount: 2
Fore
SplineSet
729.40234375 887 m 0
 380.936523438 442 l 0
 650.936523438 442 l 0
 729.40234375 887 l 0
798.698242188 1280 m 0
 1025.69824219 1280 l 0
 877.936523438 442 l 0
 1037.93652344 442 l 0
 1005.13964844 256 l 0
 845.139648438 256 l 0
 800 0 l 0
 573 0 l 0
 618.139648438 256 l 0
 109.139648438 256 l 0
 141.936523438 442 l 0
 798.698242188 1280 l 0
EndSplineSet
EndChar

StartChar: five
Encoding: 53 53 65
Width: 1024
Flags: HW
LayerCount: 2
Fore
SplineSet
608.901367188 1094 m 0
 561.646484375 826 l 0
 657.646484375 826 l 0
 842.646484375 826 842.646484375 826 933.130859375 729.5 c 0
 1023.61523438 633 1023.61523438 633 994.344726562 467 c 0
 971.24609375 336 971.24609375 336 915.34765625 243 c 0
 859.44921875 150 859.44921875 150 772.338867188 95.5 c 0
 685.229492188 41 685.229492188 41 576.909179688 16.5 c 0
 468.58984375 -8 468.58984375 -8 328.58984375 -8 c 0
 264.58984375 -8 264.58984375 -8 214.794921875 -4 c 0
 165 0 165 0 147.205078125 4 c 0
 129.41015625 8 l 0
 160.796875 186 l 0
 362.796875 186 l 0
 522.796875 186 522.796875 186 617.2578125 251 c 0
 711.719726562 316 711.719726562 316 738.344726562 467 c 0
 752.451171875 547 752.451171875 547 722.150390625 593.5 c 0
 691.849609375 640 691.849609375 640 624.849609375 640 c 0
 272.849609375 640 l 0
 385.698242188 1280 l 0
 1089.69824219 1280 l 0
 1056.90136719 1094 l 0
 608.901367188 1094 l 0
EndSplineSet
EndChar

StartChar: six
Encoding: 54 54 66
Width: 1024
Flags: HW
LayerCount: 2
Fore
SplineSet
541.975585938 170 m 0
 621.975585938 170 621.975585938 170 678.614257812 227.5 c 0
 735.252929688 285 735.252929688 285 752.709960938 384 c 0
 770.166015625 483 770.166015625 483 733.8046875 540.5 c 0
 697.443359375 598 697.443359375 598 617.443359375 598 c 0
 519.443359375 598 519.443359375 598 473.744140625 551.5 c 0
 428.044921875 505 428.044921875 505 406.709960938 384 c 0
 389.252929688 285 389.252929688 285 425.614257812 227.5 c 0
 461.975585938 170 461.975585938 170 541.975585938 170 c 0
509.178710938 -16 m 0
 324.178710938 -16 324.178710938 -16 235.633789062 91.5 c 0
 147.088867188 199 147.088867188 199 179.709960938 384 c 0
 208.130859375 545.185546875 208.130859375 545.185546875 265.116210938 631.34375 c 0
 693.698242188 1280 l 0
 977.698242188 1280 l 0
 650.240234375 784 l 0
 834.240234375 784 834.240234375 784 923.020507812 675 c 0
 1011.80078125 566 1011.80078125 566 979.709960938 384 c 0
 947.088867188 199 947.088867188 199 820.633789062 91.5 c 0
 694.178710938 -16 694.178710938 -16 509.178710938 -16 c 0
EndSplineSet
EndChar

StartChar: seven
Encoding: 55 55 67
Width: 1024
Flags: HW
LayerCount: 2
Fore
SplineSet
1153.69824219 1280 m 0
 1120.90136719 1094 l 0
 512 0 l 0
 238 0 l 0
 846.901367188 1094 l 0
 288.901367188 1094 l 0
 321.698242188 1280 l 0
 1153.69824219 1280 l 0
EndSplineSet
EndChar

StartChar: eight
Encoding: 56 56 68
Width: 1024
Flags: HW
LayerCount: 2
Fore
SplineSet
614.622070312 582 m 0
 607.09375 579 607.09375 579 593.947265625 572.5 c 0
 580.80078125 566 580.80078125 566 546.598632812 545 c 0
 512.395507812 524 512.395507812 524 485.33984375 501 c 0
 458.284179688 478 458.284179688 478 433.024414062 442.5 c 0
 407.764648438 407 407.764648438 407 401.416992188 371 c 0
 385.018554688 278 385.018554688 278 422.497070312 224 c 0
 459.975585938 170 459.975585938 170 541.975585938 170 c 0
 623.975585938 170 623.975585938 170 680.497070312 224 c 0
 737.018554688 278 737.018554688 278 753.416992188 371 c 0
 759.764648438 407 759.764648438 407 748.024414062 442.5 c 0
 736.284179688 478 736.284179688 478 714.516601562 502 c 0
 692.748046875 526 692.748046875 526 670.098632812 545 c 0
 647.448242188 564 647.448242188 564 631.03515625 573 c 0
 614.622070312 582 l 0
506.86328125 952 m 0
 501.220703125 920 501.220703125 920 513.842773438 889.5 c 0
 526.46484375 859 526.46484375 859 547.76171875 838 c 0
 569.059570312 817 569.059570312 817 591.649414062 800.5 c 0
 614.240234375 784 614.240234375 784 630.830078125 776 c 0
 647.418945312 768 l 0
 654.948242188 771 654.948242188 771 667.41796875 776.5 c 0
 679.887695312 782 679.887695312 782 713.061523438 800 c 0
 746.235351562 818 746.235351562 818 772.76171875 838 c 0
 799.288085938 858 799.288085938 858 823.254882812 889 c 0
 847.220703125 920 847.220703125 920 852.86328125 952 c 0
 865.735351562 1025 865.735351562 1025 826.729492188 1067.5 c 0
 787.72265625 1110 787.72265625 1110 707.72265625 1110 c 0
 627.72265625 1110 627.72265625 1110 573.729492188 1067.5 c 0
 519.735351562 1025 519.735351562 1025 506.86328125 952 c 0
279.86328125 952 m 0
 308.075195312 1112 308.075195312 1112 431.797851562 1204 c 0
 555.51953125 1296 555.51953125 1296 740.51953125 1296 c 0
 925.51953125 1296 925.51953125 1296 1016.79785156 1204 c 0
 1108.07519531 1112 1108.07519531 1112 1079.86328125 952 c 0
 1072.10449219 908 1072.10449219 908 1044.11132812 865.5 c 0
 1016.1171875 823 1016.1171875 823 981.415039062 793.5 c 0
 946.713867188 764 946.713867188 764 913.24609375 741.5 c 0
 879.779296875 719 879.779296875 719 857.33984375 708 c 0
 834.900390625 697 l 0
 843.018554688 692 843.018554688 692 857.342773438 682.5 c 0
 871.66796875 673 871.66796875 673 905.9375 640.5 c 0
 940.20703125 608 940.20703125 608 964.447265625 572.5 c 0
 988.6875 537 988.6875 537 1003.98925781 482 c 0
 1019.29199219 427 1019.29199219 427 1009.41699219 371 c 0
 977.854492188 192 977.854492188 192 843.516601562 88 c 0
 709.178710938 -16 709.178710938 -16 509.178710938 -16 c 0
 309.178710938 -16 309.178710938 -16 211.516601562 88 c 0
 113.854492188 192 113.854492188 192 145.416992188 371 c 0
 155.291992188 427 155.291992188 427 188.901367188 481.5 c 0
 222.51171875 536 222.51171875 536 263.03515625 573 c 0
 303.559570312 610 303.559570312 610 342.760742188 639.5 c 0
 381.962890625 669 381.962890625 669 408.431640625 683 c 0
 434.900390625 697 l 0
 427.60546875 701 427.60546875 701 415.427734375 708.5 c 0
 403.25 716 403.25 716 373.158203125 741 c 0
 343.06640625 766 343.06640625 766 321.50390625 794 c 0
 299.940429688 822 299.940429688 822 286.022460938 865 c 0
 272.104492188 908 272.104492188 908 279.86328125 952 c 0
EndSplineSet
EndChar

StartChar: nine
Encoding: 57 57 69
Width: 1024
Flags: HW
LayerCount: 2
Fore
SplineSet
707.72265625 1110 m 0
 627.72265625 1110 627.72265625 1110 571.083984375 1052.5 c 0
 514.4453125 995 514.4453125 995 496.989257812 896 c 0
 479.532226562 797 479.532226562 797 515.893554688 739.5 c 0
 552.254882812 682 552.254882812 682 632.254882812 682 c 0
 730.254882812 682 730.254882812 682 775.954101562 728.5 c 0
 821.653320312 775 821.653320312 775 842.989257812 896 c 0
 860.4453125 995 860.4453125 995 824.083984375 1052.5 c 0
 787.72265625 1110 787.72265625 1110 707.72265625 1110 c 0
740.51953125 1296 m 0
 925.51953125 1296 925.51953125 1296 1014.06445312 1188.5 c 0
 1102.609375 1081 1102.609375 1081 1069.98925781 896 c 0
 1041.56738281 734.814453125 1041.56738281 734.814453125 984.583007812 648.65625 c 0
 556 0 l 0
 272 0 l 0
 599.458007812 496 l 0
 415.458007812 496 415.458007812 496 326.677734375 605 c 0
 237.897460938 714 237.897460938 714 269.989257812 896 c 0
 302.609375 1081 302.609375 1081 429.064453125 1188.5 c 0
 555.51953125 1296 555.51953125 1296 740.51953125 1296 c 0
EndSplineSet
EndChar

StartChar: colon
Encoding: 58 58 70
Width: 1024
Flags: HW
LayerCount: 2
Fore
SplineSet
414.3515625 416 m 0
 756.3515625 416 l 0
 699.927734375 96 l 0
 357.927734375 96 l 0
 414.3515625 416 l 0
549.771484375 1184 m 0
 891.771484375 1184 l 0
 835.346679688 864 l 0
 493.346679688 864 l 0
 549.771484375 1184 l 0
EndSplineSet
EndChar

StartChar: semicolon
Encoding: 59 59 71
Width: 1024
Flags: HW
LayerCount: 2
Fore
SplineSet
414.3515625 416 m 0
 756.3515625 416 l 0
 711.2109375 159.994140625 l 0
 710.357421875 155.2265625 710.357421875 155.2265625 707.7734375 146.322265625 c 0
 705.189453125 137.41796875 705.189453125 137.41796875 690.76171875 108.006835938 c 0
 676.333984375 78.5947265625 676.333984375 78.5947265625 654.713867188 47.111328125 c 0
 633.092773438 15.626953125 633.092773438 15.626953125 589.423828125 -32.24609375 c 0
 545.75390625 -80.1181640625 545.75390625 -80.1181640625 489.4296875 -128 c 0
 338.860351562 -256 l 0
 231.314453125 -140 l 0
 381.883789062 -12 l 0
 448.934570312 45 448.934570312 45 488.516601562 88 c 0
 528.098632812 131 528.098632812 131 534.155273438 145.5 c 0
 540.211914062 160 l 0
 369.211914062 160 l 0
 414.3515625 416 l 0
549.771484375 1184 m 0
 891.771484375 1184 l 0
 835.346679688 864 l 0
 493.346679688 864 l 0
 549.771484375 1184 l 0
EndSplineSet
EndChar

StartChar: less
Encoding: 60 60 72
Width: 1024
Flags: HW
LayerCount: 2
Fore
SplineSet
1108.55859375 1024 m 0
 507.849609375 640 l 0
 973.139648438 256 l 0
 807.6953125 72 l 0
 197.564453125 576 l 0
 220.133789062 704 l 0
 1008.00292969 1208 l 0
 1108.55859375 1024 l 0
EndSplineSet
EndChar

StartChar: equal
Encoding: 61 61 73
Width: 1024
Flags: HW
LayerCount: 2
Fore
SplineSet
190.864257812 538 m 0
 1022.86425781 538 l 0
 986.893554688 334 l 0
 154.893554688 334 l 0
 190.864257812 538 l 0
262.805664062 946 m 0
 1094.80566406 946 l 0
 1058.83496094 742 l 0
 226.834960938 742 l 0
 262.805664062 946 l 0
EndSplineSet
EndChar

StartChar: greater
Encoding: 62 62 74
Width: 1024
Flags: HW
LayerCount: 2
Fore
SplineSet
276.55859375 1024 m 0
 442.002929688 1208 l 0
 1052.13378906 704 l 0
 1029.56445312 576 l 0
 241.6953125 72 l 0
 141.139648438 256 l 0
 741.849609375 640 l 0
 276.55859375 1024 l 0
EndSplineSet
EndChar

StartChar: question
Encoding: 63 63 75
Width: 1024
Flags: HW
LayerCount: 2
Fore
SplineSet
386.139648438 256 m 0
 728.139648438 256 l 0
 683 0 l 0
 341 0 l 0
 386.139648438 256 l 0
384.288085938 1272 m 0
 476.109375 1288 476.109375 1288 619.109375 1288 c 0
 856.109375 1288 856.109375 1288 968.120117188 1211.5 c 0
 1080.13085938 1135 1080.13085938 1135 1049.97949219 964 c 0
 1026.52734375 831 1026.52734375 831 936.950195312 754 c 0
 847.373046875 677 847.373046875 677 716.373046875 677 c 0
 687.279296875 512 l 0
 431.279296875 512 l 0
 488.056640625 834 l 0
 627.056640625 834 627.056640625 834 704.346679688 864 c 0
 781.63671875 894 781.63671875 894 793.979492188 964 c 0
 806.322265625 1034 806.322265625 1034 752.612304688 1064 c 0
 698.901367188 1094 698.901367188 1094 584.901367188 1094 c 0
 352.901367188 1094 l 0
 384.288085938 1272 l 0
EndSplineSet
EndChar

StartChar: at
Encoding: 64 64 76
Width: 1024
Flags: HW
LayerCount: 2
Fore
SplineSet
794.418945312 768 m 0
 753.418945312 768 753.418945312 768 725.334960938 742 c 0
 697.25 716 697.25 716 689.138671875 670 c 0
 676.267578125 597 676.267578125 597 692.2734375 554.5 c 0
 708.279296875 512 708.279296875 512 749.279296875 512 c 0
 846.279296875 512 l 0
 891.418945312 768 l 0
 794.418945312 768 l 0
791.51953125 1296 m 0
 985.51953125 1296 985.51953125 1296 1073.08984375 1217 c 0
 1160.66015625 1138 1160.66015625 1138 1128.21582031 954 c 0
 1050.27929688 512 l 0
 1031.76464844 407 1031.76464844 407 980.124023438 366.5 c 0
 928.482421875 326 928.482421875 326 813.482421875 326 c 0
 716.482421875 326 l 0
 581.482421875 326 581.482421875 326 519.205078125 418 c 0
 456.926757812 510 456.926757812 510 485.138671875 670 c 0
 508.4140625 802 508.4140625 802 600.315429688 878 c 0
 692.215820312 954 692.215820312 954 827.215820312 954 c 0
 924.215820312 954 l 0
 929.329101562 983 929.329101562 983 930.296875 1005.5 c 0
 931.263671875 1028 931.263671875 1028 926.084960938 1044 c 0
 920.90625 1060 920.90625 1060 915.934570312 1071.5 c 0
 910.961914062 1083 910.961914062 1083 896.284179688 1090.5 c 0
 881.607421875 1098 881.607421875 1098 871.3125 1102 c 0
 861.017578125 1106 861.017578125 1106 838.282226562 1107.5 c 0
 815.546875 1109 815.546875 1109 801.634765625 1109.5 c 0
 787.72265625 1110 787.72265625 1110 758.72265625 1110 c 0
 684.72265625 1110 684.72265625 1110 624.403320312 1085.5 c 0
 564.083007812 1061 564.083007812 1061 513.149414062 1007.5 c 0
 462.215820312 954 462.215820312 954 424.994140625 862 c 0
 387.771484375 770 387.771484375 770 364.849609375 640 c 0
 321.649414062 395 321.649414062 395 399.72265625 290.5 c 0
 477.796875 186 477.796875 186 663.796875 186 c 0
 928.796875 186 l 0
 897.41015625 8 l 0
 793.58984375 -8 793.58984375 -8 629.58984375 -8 c 0
 518.58984375 -8 518.58984375 -8 434.204101562 12.5 c 0
 349.818359375 33 349.818359375 33 285.194335938 80.5 c 0
 220.5703125 128 220.5703125 128 185.118164062 202 c 0
 149.666015625 276 149.666015625 276 142.5625 386 c 0
 135.458007812 496 135.458007812 496 160.849609375 640 c 0
 186.416992188 785 186.416992188 785 229.577148438 896.5 c 0
 272.737304688 1008 272.737304688 1008 328.549804688 1083.5 c 0
 384.36328125 1159 384.36328125 1159 457.23828125 1206.5 c 0
 530.114257812 1254 530.114257812 1254 611.817382812 1275 c 0
 693.51953125 1296 693.51953125 1296 791.51953125 1296 c 0
EndSplineSet
EndChar

StartChar: A
Encoding: 65 65 77
Width: 1024
Flags: HW
LayerCount: 2
Fore
SplineSet
681.979492188 964 m 0
 614.418945312 768 l 0
 466.936523438 442 l 0
 712.936523438 442 l 0
 680.418945312 768 l 0
 681.979492188 964 l 0
609.698242188 1280 m 0
 865.698242188 1280 l 0
 992 0 l 0
 757 0 l 0
 731.139648438 256 l 0
 383.139648438 256 l 0
 267 0 l 0
 32 0 l 0
 609.698242188 1280 l 0
EndSplineSet
EndChar

StartChar: B
Encoding: 66 66 78
Width: 1024
Flags: HW
LayerCount: 2
Fore
SplineSet
454.622070312 582 m 0
 384.796875 186 l 0
 548.796875 186 548.796875 186 638.37890625 229 c 0
 727.9609375 272 727.9609375 272 747.709960938 384 c 0
 767.458007812 496 767.458007812 496 693.040039062 539 c 0
 618.622070312 582 618.622070312 582 454.622070312 582 c 0
544.901367188 1094 m 0
 487.418945312 768 l 0
 620.418945312 768 620.418945312 768 696.53125 805.5 c 0
 772.643554688 843 772.643554688 843 788.16015625 931 c 0
 803.676757812 1019 803.676757812 1019 740.7890625 1056.5 c 0
 677.901367188 1094 677.901367188 1094 544.901367188 1094 c 0
321.698242188 1280 m 0
 577.698242188 1280 l 0
 703.698242188 1280 703.698242188 1280 795.024414062 1262 c 0
 886.350585938 1244 886.350585938 1244 949.797851562 1204 c 0
 1013.24414062 1164 1013.24414062 1164 1037.16601562 1095.5 c 0
 1061.08789062 1027 1061.08789062 1027 1044.16015625 931 c 0
 1034.99121094 879 1034.99121094 879 1006.32128906 835.5 c 0
 977.651367188 792 977.651367188 792 943.831054688 767.5 c 0
 910.010742188 743 910.010742188 743 877.513671875 726 c 0
 845.015625 709 845.015625 709 822.958007812 703 c 0
 800.900390625 697 l 0
 806.723632812 696 806.723632812 696 815.694335938 693 c 0
 824.666015625 690 824.666015625 690 850.137695312 678.5 c 0
 875.610351562 667 875.610351562 667 898.053710938 652.5 c 0
 920.497070312 638 920.497070312 638 946.912109375 612 c 0
 973.327148438 586 973.327148438 586 989.94921875 555.5 c 0
 1006.57128906 525 1006.57128906 525 1013.63671875 480 c 0
 1020.70214844 435 1020.70214844 435 1011.70996094 384 c 0
 993.018554688 278 993.018554688 278 939.793945312 203 c 0
 886.5703125 128 886.5703125 128 799.311523438 84 c 0
 712.052734375 40 712.052734375 40 603.026367188 20 c 0
 494 0 494 0 352 0 c 0
 96 0 l 0
 321.698242188 1280 l 0
EndSplineSet
EndChar

StartChar: C
Encoding: 67 67 79
Width: 1024
Flags: HW
LayerCount: 2
Fore
SplineSet
927.109375 1288 m 0
 981.109375 1288 981.109375 1288 1029.40429688 1284 c 0
 1077.69824219 1280 1077.69824219 1280 1098.99316406 1276 c 0
 1120.28808594 1272 l 0
 1088.90136719 1094 l 0
 892.901367188 1094 l 0
 746.901367188 1094 746.901367188 1094 640.477539062 972.5 c 0
 534.0546875 851 534.0546875 851 496.849609375 640 c 0
 453.649414062 395 453.649414062 395 515.72265625 290.5 c 0
 577.796875 186 577.796875 186 732.796875 186 c 0
 928.796875 186 l 0
 897.41015625 8 l 0
 819.58984375 -8 819.58984375 -8 698.58984375 -8 c 0
 557.58984375 -8 557.58984375 -8 458.49609375 25.5 c 0
 359.403320312 59 359.403320312 59 293.951171875 133 c 0
 228.5 207 228.5 207 210.893554688 334 c 0
 193.287109375 461 193.287109375 461 224.849609375 640 c 0
 277.747070312 940 277.747070312 940 466.428710938 1114 c 0
 655.109375 1288 655.109375 1288 927.109375 1288 c 0
EndSplineSet
EndChar

StartChar: D
Encoding: 68 68 80
Width: 1024
Flags: HW
LayerCount: 2
Fore
SplineSet
544.901367188 1094 m 0
 384.796875 186 l 0
 541.796875 186 541.796875 186 641.72265625 290.5 c 0
 741.649414062 395 741.649414062 395 784.849609375 640 c 0
 828.049804688 885 828.049804688 885 764.975585938 989.5 c 0
 701.901367188 1094 701.901367188 1094 544.901367188 1094 c 0
321.698242188 1280 m 0
 577.698242188 1280 l 0
 719.698242188 1280 719.698242188 1280 819.379882812 1247 c 0
 919.060546875 1214 919.060546875 1214 985.600585938 1140.5 c 0
 1052.140625 1067 1052.140625 1067 1070.09960938 942 c 0
 1088.05957031 817 1088.05957031 817 1056.84960938 640 c 0
 1025.63964844 463 1025.63964844 463 963.598632812 338 c 0
 901.557617188 213 901.557617188 213 809.09765625 139.5 c 0
 716.637695312 66 716.637695312 66 605.318359375 33 c 0
 494 0 494 0 352 0 c 0
 96 0 l 0
 321.698242188 1280 l 0
EndSplineSet
EndChar

StartChar: E
Encoding: 69 69 81
Width: 1024
Flags: HW
LayerCount: 2
Fore
SplineSet
353.698242188 1280 m 0
 1153.69824219 1280 l 0
 1120.90136719 1094 l 0
 576.901367188 1094 l 0
 519.418945312 768 l 0
 1031.41894531 768 l 0
 998.622070312 582 l 0
 486.622070312 582 l 0
 416.796875 186 l 0
 960.796875 186 l 0
 928 0 l 0
 128 0 l 0
 353.698242188 1280 l 0
EndSplineSet
EndChar

StartChar: F
Encoding: 70 70 82
Width: 1024
Flags: HW
LayerCount: 2
Fore
SplineSet
353.698242188 1280 m 0
 1153.69824219 1280 l 0
 1120.90136719 1094 l 0
 576.901367188 1094 l 0
 519.418945312 768 l 0
 1031.41894531 768 l 0
 998.622070312 582 l 0
 486.622070312 582 l 0
 384 0 l 0
 128 0 l 0
 353.698242188 1280 l 0
EndSplineSet
EndChar

StartChar: G
Encoding: 71 71 83
Width: 1024
Flags: HW
LayerCount: 2
Fore
SplineSet
915.109375 1288 m 0
 972.109375 1288 972.109375 1288 1023.40429688 1284 c 0
 1074.69824219 1280 1074.69824219 1280 1097.49316406 1276 c 0
 1120.28808594 1272 l 0
 1088.90136719 1094 l 0
 880.901367188 1094 l 0
 724.901367188 1094 724.901367188 1094 613.477539062 972.5 c 0
 502.0546875 851 502.0546875 851 464.849609375 640 c 0
 420.944335938 391 420.944335938 391 452.665039062 284.5 c 0
 484.385742188 178 484.385742188 178 581.385742188 178 c 0
 641.385742188 178 641.385742188 178 676.8828125 203.5 c 0
 712.37890625 229 712.37890625 229 722.782226562 288 c 0
 774.622070312 582 l 0
 614.622070312 582 l 0
 647.418945312 768 l 0
 1063.41894531 768 l 0
 978.782226562 288 l 0
 950.74609375 129 950.74609375 129 842.16796875 60.5 c 0
 733.58984375 -8 733.58984375 -8 548.58984375 -8 c 0
 435.58984375 -8 435.58984375 -8 357.99609375 25.5 c 0
 280.403320312 59 280.403320312 59 230.451171875 133 c 0
 180.5 207 180.5 207 170.893554688 334 c 0
 161.287109375 461 161.287109375 461 192.849609375 640 c 0
 245.747070312 940 245.747070312 940 439.428710938 1114 c 0
 633.109375 1288 633.109375 1288 915.109375 1288 c 0
EndSplineSet
EndChar

StartChar: H
Encoding: 72 72 84
Width: 1024
Flags: HW
LayerCount: 2
Fore
SplineSet
321.698242188 1280 m 0
 577.698242188 1280 l 0
 487.418945312 768 l 0
 807.418945312 768 l 0
 897.698242188 1280 l 0
 1153.69824219 1280 l 0
 928 0 l 0
 672 0 l 0
 774.622070312 582 l 0
 454.622070312 582 l 0
 352 0 l 0
 96 0 l 0
 321.698242188 1280 l 0
EndSplineSet
EndChar

StartChar: I
Encoding: 73 73 85
Width: 1024
Flags: HW
LayerCount: 2
Fore
SplineSet
385.698242188 1280 m 0
 1089.69824219 1280 l 0
 1056.90136719 1094 l 0
 832.901367188 1094 l 0
 672.796875 186 l 0
 896.796875 186 l 0
 864 0 l 0
 160 0 l 0
 192.796875 186 l 0
 416.796875 186 l 0
 576.901367188 1094 l 0
 352.901367188 1094 l 0
 385.698242188 1280 l 0
EndSplineSet
EndChar

StartChar: J
Encoding: 74 74 86
Width: 1024
Flags: HW
LayerCount: 2
Fore
SplineSet
421.698242188 1280 m 0
 1089.69824219 1280 l 0
 956.748046875 526 l 0
 930.651367188 378 930.651367188 378 874.725585938 273.5 c 0
 818.798828125 169 818.798828125 169 734.04296875 108 c 0
 649.287109375 47 649.287109375 47 545.938476562 19.5 c 0
 442.58984375 -8 442.58984375 -8 309.58984375 -8 c 0
 259.58984375 -8 259.58984375 -8 214.294921875 -4 c 0
 169 0 169 0 149.205078125 4 c 0
 129.41015625 8 l 0
 160.796875 186 l 0
 343.796875 186 l 0
 489.796875 186 489.796875 186 579.138671875 264.5 c 0
 668.48046875 343 668.48046875 343 700.748046875 526 c 0
 800.901367188 1094 l 0
 388.901367188 1094 l 0
 421.698242188 1280 l 0
EndSplineSet
EndChar

StartChar: K
Encoding: 75 75 87
Width: 1024
Flags: HW
LayerCount: 2
Fore
SplineSet
889.698242188 1280 m 0
 1153.69824219 1280 l 0
 685.4921875 672 l 0
 960 0 l 0
 697 0 l 0
 435.849609375 640 l 0
 323 0 l 0
 96 0 l 0
 321.698242188 1280 l 0
 548.698242188 1280 l 0
 447.133789062 704 l 0
 889.698242188 1280 l 0
EndSplineSet
EndChar

StartChar: L
Encoding: 76 76 88
Width: 1024
Flags: HW
LayerCount: 2
Fore
SplineSet
353.698242188 1280 m 0
 609.698242188 1280 l 0
 416.796875 186 l 0
 960.796875 186 l 0
 928 0 l 0
 128 0 l 0
 353.698242188 1280 l 0
EndSplineSet
EndChar

StartChar: M
Encoding: 77 77 89
Width: 1024
Flags: HW
LayerCount: 2
Fore
SplineSet
958.698242188 1280 m 0
 1185.69824219 1280 l 0
 960 0 l 0
 733 0 l 0
 845.849609375 640 l 0
 943.797851562 997 l 0
 688.849609375 640 l 0
 560.849609375 640 l 0
 431.797851562 997 l 0
 403.849609375 640 l 0
 291 0 l 0
 64 0 l 0
 289.698242188 1280 l 0
 516.698242188 1280 l 0
 674.92578125 924 l 0
 958.698242188 1280 l 0
EndSplineSet
EndChar

StartChar: N
Encoding: 78 78 90
Width: 1024
Flags: HW
LayerCount: 2
Fore
SplineSet
321.698242188 1280 m 0
 548.698242188 1280 l 0
 737.849609375 640 l 0
 789.825195312 396 l 0
 813.849609375 640 l 0
 926.698242188 1280 l 0
 1153.69824219 1280 l 0
 928 0 l 0
 701 0 l 0
 511.849609375 640 l 0
 459.873046875 884 l 0
 435.849609375 640 l 0
 323 0 l 0
 96 0 l 0
 321.698242188 1280 l 0
EndSplineSet
EndChar

StartChar: O
Encoding: 79 79 91
Width: 1024
Flags: HW
LayerCount: 2
Fore
SplineSet
707.72265625 1110 m 0
 655.72265625 1110 655.72265625 1110 614.140625 1067 c 0
 572.55859375 1024 572.55859375 1024 533.868164062 918 c 0
 495.177734375 812 495.177734375 812 464.849609375 640 c 0
 434.521484375 468 434.521484375 468 435.830078125 362 c 0
 437.139648438 256 437.139648438 256 463.557617188 213 c 0
 489.975585938 170 489.975585938 170 541.975585938 170 c 0
 593.975585938 170 593.975585938 170 635.557617188 213 c 0
 677.139648438 256 677.139648438 256 715.830078125 362 c 0
 754.521484375 468 754.521484375 468 784.849609375 640 c 0
 815.177734375 812 815.177734375 812 813.868164062 918 c 0
 812.55859375 1024 812.55859375 1024 786.140625 1067 c 0
 759.72265625 1110 759.72265625 1110 707.72265625 1110 c 0
192.849609375 640 m 0
 224.764648438 821 224.764648438 821 276.922851562 949.5 c 0
 329.080078125 1078 329.080078125 1078 399.8046875 1153 c 0
 470.529296875 1228 470.529296875 1228 553.524414062 1262 c 0
 636.51953125 1296 636.51953125 1296 740.51953125 1296 c 0
 844.51953125 1296 844.51953125 1296 915.524414062 1262 c 0
 986.529296875 1228 986.529296875 1228 1030.8046875 1153 c 0
 1075.08007812 1078 1075.08007812 1078 1081.92285156 949.5 c 0
 1088.76464844 821 1088.76464844 821 1056.84960938 640 c 0
 1024.93457031 459 1024.93457031 459 972.776367188 330.5 c 0
 920.618164062 202 920.618164062 202 849.893554688 127 c 0
 779.168945312 52 779.168945312 52 696.173828125 18 c 0
 613.178710938 -16 613.178710938 -16 509.178710938 -16 c 0
 405.178710938 -16 405.178710938 -16 334.173828125 18 c 0
 263.168945312 52 263.168945312 52 218.893554688 127 c 0
 174.618164062 202 174.618164062 202 167.776367188 330.5 c 0
 160.934570312 459 160.934570312 459 192.849609375 640 c 0
EndSplineSet
EndChar

StartChar: P
Encoding: 80 80 92
Width: 1024
Flags: HW
LayerCount: 2
Fore
SplineSet
544.901367188 1094 m 0
 475.076171875 698 l 0
 600.076171875 698 l 0
 694.076171875 698 694.076171875 698 758.009765625 751.5 c 0
 821.943359375 805 821.943359375 805 837.989257812 896 c 0
 854.03515625 987 854.03515625 987 829.967773438 1040.5 c 0
 805.901367188 1094 805.901367188 1094 747.901367188 1094 c 0
 544.901367188 1094 l 0
321.698242188 1280 m 0
 780.698242188 1280 l 0
 960.698242188 1280 960.698242188 1280 1047.03710938 1177 c 0
 1133.375 1074 1133.375 1074 1101.98925781 896 c 0
 1070.60253906 718 1070.60253906 718 927.44140625 615 c 0
 784.279296875 512 784.279296875 512 567.279296875 512 c 0
 442.279296875 512 l 0
 352 0 l 0
 96 0 l 0
 321.698242188 1280 l 0
EndSplineSet
EndChar

StartChar: Q
Encoding: 81 81 93
Width: 1024
Flags: HW
LayerCount: 2
Fore
SplineSet
707.72265625 1110 m 0
 590.72265625 1110 590.72265625 1110 528.736328125 1016.5 c 0
 466.75 923 466.75 923 424.431640625 683 c 0
 390.576171875 491 390.576171875 491 401.737304688 395.5 c 0
 412.8984375 300 412.8984375 300 474.784179688 271 c 0
 547.431640625 683 l 0
 717.431640625 683 l 0
 644.784179688 271 l 0
 716.8984375 300 716.8984375 300 761.737304688 395.5 c 0
 806.576171875 491 806.576171875 491 840.431640625 683 c 0
 882.75 923 882.75 923 853.736328125 1016.5 c 0
 824.72265625 1110 824.72265625 1110 707.72265625 1110 c 0
740.51953125 1296 m 0
 873.51953125 1296 873.51953125 1296 954.641601562 1265.5 c 0
 1035.76367188 1235 1035.76367188 1235 1078.80371094 1161.5 c 0
 1121.84375 1088 1121.84375 1088 1124.65429688 973.5 c 0
 1127.46484375 859 1127.46484375 859 1096.43164062 683 c 0
 1045.82519531 396 1045.82519531 396 947.2265625 265 c 0
 848.627929688 134 848.627929688 134 658.8671875 107 c 0
 612.31640625 -157 l 0
 356.31640625 -157 l 0
 402.8671875 107 l 0
 222.627929688 134 222.627929688 134 170.2265625 265 c 0
 117.825195312 396 117.825195312 396 168.431640625 683 c 0
 199.46484375 859 199.46484375 859 242.654296875 973.5 c 0
 285.84375 1088 285.84375 1088 354.803710938 1161.5 c 0
 423.763671875 1235 423.763671875 1235 515.641601562 1265.5 c 0
 607.51953125 1296 607.51953125 1296 740.51953125 1296 c 0
EndSplineSet
EndChar

StartChar: R
Encoding: 82 82 94
Width: 1024
Flags: HW
LayerCount: 2
Fore
SplineSet
515.901367188 1094 m 0
 458.418945312 768 l 0
 608.418945312 768 l 0
 728.418945312 768 728.418945312 768 797.03125 805.5 c 0
 865.643554688 843 865.643554688 843 881.16015625 931 c 0
 896.676757812 1019 896.676757812 1019 865.2890625 1056.5 c 0
 833.901367188 1094 833.901367188 1094 759.901367188 1094 c 0
 515.901367188 1094 l 0
321.698242188 1280 m 0
 792.698242188 1280 l 0
 977.698242188 1280 977.698242188 1280 1059.50390625 1199.5 c 0
 1141.30957031 1119 1141.30957031 1119 1108.16015625 931 c 0
 1066.19433594 693 1066.19433594 693 849.146484375 619 c 0
 960 0 l 0
 704 0 l 0
 614.622070312 582 l 0
 425.622070312 582 l 0
 323 0 l 0
 96 0 l 0
 321.698242188 1280 l 0
EndSplineSet
EndChar

StartChar: S
Encoding: 83 83 95
Width: 1024
Flags: HW
LayerCount: 2
Fore
SplineSet
921.109375 1288 m 0
 977.109375 1288 977.109375 1288 1026.90429688 1284 c 0
 1076.69824219 1280 1076.69824219 1280 1098.49316406 1276 c 0
 1120.28808594 1272 l 0
 1088.90136719 1094 l 0
 886.901367188 1094 l 0
 727.901367188 1094 727.901367188 1094 637.701171875 1056 c 0
 547.500976562 1018 547.500976562 1018 531.984375 930 c 0
 521.756835938 872 521.756835938 872 546.616210938 831.5 c 0
 571.474609375 791 571.474609375 791 617.918945312 768 c 0
 664.36328125 745 664.36328125 745 722.424804688 725.5 c 0
 780.487304688 706 780.487304688 706 837.314453125 679.5 c 0
 894.141601562 653 894.141601562 653 938.1171875 616 c 0
 982.09375 579 982.09375 579 1002.10351562 511 c 0
 1022.11328125 443 1022.11328125 443 1005.71484375 350 c 0
 988.2578125 251 988.2578125 251 933.415039062 181 c 0
 878.572265625 111 878.572265625 111 788.342773438 70 c 0
 698.11328125 29 698.11328125 29 583.8515625 10.5 c 0
 469.58984375 -8 469.58984375 -8 320.58984375 -8 c 0
 258.58984375 -8 258.58984375 -8 202.794921875 -4 c 0
 147 0 147 0 122.205078125 4 c 0
 97.41015625 8 l 0
 128.796875 186 l 0
 354.796875 186 l 0
 533.796875 186 533.796875 186 633.997070312 224 c 0
 734.197265625 262 734.197265625 262 749.71484375 350 c 0
 759.94140625 408 759.94140625 408 735.083007812 448.5 c 0
 710.223632812 489 710.223632812 489 663.779296875 512 c 0
 617.334960938 535 617.334960938 535 559.2734375 554.5 c 0
 501.211914062 574 501.211914062 574 444.384765625 600.5 c 0
 387.556640625 627 387.556640625 627 343.581054688 664 c 0
 299.60546875 701 299.60546875 701 279.595703125 769 c 0
 259.5859375 837 259.5859375 837 275.984375 930 c 0
 310.015625 1123 310.015625 1123 473.0625 1205.5 c 0
 636.109375 1288 636.109375 1288 921.109375 1288 c 0
EndSplineSet
EndChar

StartChar: T
Encoding: 84 84 96
Width: 1024
Flags: HW
LayerCount: 2
Fore
SplineSet
289.698242188 1280 m 0
 1185.69824219 1280 l 0
 1152.90136719 1094 l 0
 832.901367188 1094 l 0
 640 0 l 0
 384 0 l 0
 576.901367188 1094 l 0
 256.901367188 1094 l 0
 289.698242188 1280 l 0
EndSplineSet
EndChar

StartChar: U
Encoding: 85 85 97
Width: 1024
Flags: HW
LayerCount: 2
Fore
SplineSet
321.698242188 1280 m 0
 577.698242188 1280 l 0
 453.564453125 576 l 0
 413.185546875 347 413.185546875 347 432.580078125 258.5 c 0
 451.975585938 170 451.975585938 170 541.975585938 170 c 0
 631.975585938 170 631.975585938 170 682.580078125 258.5 c 0
 733.185546875 347 733.185546875 347 773.564453125 576 c 0
 897.698242188 1280 l 0
 1153.69824219 1280 l 0
 1029.56445312 576 l 0
 999.588867188 406 999.588867188 406 959.104492188 295.5 c 0
 918.620117188 185 918.620117188 185 856.6015625 114 c 0
 794.58203125 43 794.58203125 43 711.380859375 13.5 c 0
 628.178710938 -16 628.178710938 -16 509.178710938 -16 c 0
 390.178710938 -16 390.178710938 -16 317.380859375 13.5 c 0
 244.58203125 43 244.58203125 43 207.6015625 114 c 0
 170.620117188 185 170.620117188 185 169.104492188 295.5 c 0
 167.588867188 406 167.588867188 406 197.564453125 576 c 0
 321.698242188 1280 l 0
EndSplineSet
EndChar

StartChar: V
Encoding: 86 86 98
Width: 1024
Flags: HW
LayerCount: 2
Fore
SplineSet
257.698242188 1280 m 0
 492.698242188 1280 l 0
 569.279296875 512 l 0
 567.719726562 316 l 0
 635.279296875 512 l 0
 982.698242188 1280 l 0
 1217.69824219 1280 l 0
 640 0 l 0
 384 0 l 0
 257.698242188 1280 l 0
EndSplineSet
EndChar

StartChar: W
Encoding: 87 87 99
Width: 1024
Flags: HW
LayerCount: 2
Fore
SplineSet
257.698242188 1280 m 0
 462.698242188 1280 l 0
 389.272460938 563 l 0
 355.361328125 348 l 0
 583.418945312 768 l 0
 711.418945312 768 l 0
 791.361328125 348 l 0
 833.272460938 563 l 0
 1012.69824219 1280 l 0
 1217.69824219 1280 l 0
 896 0 l 0
 692 0 l 0
 588.87890625 436 l 0
 332 0 l 0
 128 0 l 0
 257.698242188 1280 l 0
EndSplineSet
EndChar

StartChar: X
Encoding: 88 88 100
Width: 1024
Flags: HW
LayerCount: 2
Fore
SplineSet
257.698242188 1280 m 0
 516.698242188 1280 l 0
 661.701171875 849 l 0
 958.698242188 1280 l 0
 1217.69824219 1280 l 0
 753.849609375 640 l 0
 992 0 l 0
 733 0 l 0
 587.997070312 431 l 0
 291 0 l 0
 32 0 l 0
 495.849609375 640 l 0
 257.698242188 1280 l 0
EndSplineSet
EndChar

StartChar: Y
Encoding: 89 89 101
Width: 1024
Flags: HW
LayerCount: 2
Fore
SplineSet
257.698242188 1280 m 0
 507.698242188 1280 l 0
 649.005859375 777 l 0
 967.698242188 1280 l 0
 1217.69824219 1280 l 0
 730.279296875 512 l 0
 640 0 l 0
 384 0 l 0
 474.279296875 512 l 0
 257.698242188 1280 l 0
EndSplineSet
EndChar

StartChar: Z
Encoding: 90 90 102
Width: 1024
Flags: HW
LayerCount: 2
Fore
SplineSet
353.698242188 1280 m 0
 1121.69824219 1280 l 0
 1088.90136719 1094 l 0
 392.796875 186 l 0
 960.796875 186 l 0
 928 0 l 0
 96 0 l 0
 128.796875 186 l 0
 824.901367188 1094 l 0
 320.901367188 1094 l 0
 353.698242188 1280 l 0
EndSplineSet
EndChar

StartChar: bracketleft
Encoding: 91 91 103
Width: 1024
Flags: HW
LayerCount: 2
Fore
SplineSet
1042.58496094 1251 m 0
 732.584960938 1251 l 0
 499.657226562 -70 l 0
 809.657226562 -70 l 0
 776.860351562 -256 l 0
 210.860351562 -256 l 0
 509.381835938 1437 l 0
 1075.38183594 1437 l 0
 1042.58496094 1251 l 0
EndSplineSet
EndChar

StartChar: backslash
Encoding: 92 92 104
Width: 1024
Flags: HW
LayerCount: 2
Fore
SplineSet
648.381835938 1437 m 0
 850.860351562 -256 l 0
 583.860351562 -256 l 0
 381.381835938 1437 l 0
 648.381835938 1437 l 0
EndSplineSet
EndChar

StartChar: bracketright
Encoding: 93 93 105
Width: 1024
Flags: HW
LayerCount: 2
Fore
SplineSet
422.584960938 1251 m 0
 455.381835938 1437 l 0
 1021.38183594 1437 l 0
 722.860351562 -256 l 0
 156.860351562 -256 l 0
 189.657226562 -70 l 0
 499.657226562 -70 l 0
 732.584960938 1251 l 0
 422.584960938 1251 l 0
EndSplineSet
EndChar

StartChar: asciicircum
Encoding: 94 94 106
Width: 1024
Flags: HW
LayerCount: 2
Fore
SplineSet
609.698242188 1280 m 0
 865.698242188 1280 l 0
 1072.84960938 640 l 0
 818.849609375 640 l 0
 694.674804688 1036 l 0
 430.849609375 640 l 0
 176.849609375 640 l 0
 609.698242188 1280 l 0
EndSplineSet
EndChar

StartChar: underscore
Encoding: 95 95 107
Width: 1024
Flags: HW
LayerCount: 2
Fore
SplineSet
75.8310546875 -52 m 0
 929.831054688 -52 l 0
 893.860351562 -256 l 0
 39.8603515625 -256 l 0
 75.8310546875 -52 l 0
EndSplineSet
EndChar

StartChar: grave
Encoding: 96 96 108
Width: 1024
Flags: HW
LayerCount: 2
Fore
SplineSet
447.3125 1102 m 0
 660.227539062 1283 l 0
 928.989257812 896 l 0
 774.890625 765 l 0
 447.3125 1102 l 0
EndSplineSet
EndChar

StartChar: a
Encoding: 97 97 109
Width: 1024
Flags: HW
LayerCount: 2
Fore
SplineSet
537.880859375 419 m 0
 479.880859375 419 479.880859375 419 440.208007812 392.5 c 0
 400.536132812 366 400.536132812 366 393.129882812 324 c 0
 381.4921875 258 381.4921875 258 409.14453125 222 c 0
 436.796875 186 436.796875 186 496.796875 186 c 0
 625.796875 186 l 0
 704.796875 186 704.796875 186 717.139648438 256 c 0
 745.880859375 419 l 0
 537.880859375 419 l 0
556.969726562 1032 m 0
 827.969726562 1032 827.969726562 1032 955.215820312 954 c 0
 1082.46289062 876 1082.46289062 876 1050.37109375 694 c 0
 973.139648438 256 l 0
 948.806640625 118 948.806640625 118 872.903320312 59 c 0
 797 0 797 0 672 0 c 0
 464 0 l 0
 285 0 285 0 197.6640625 86 c 0
 110.328125 172 110.328125 172 137.129882812 324 c 0
 159.700195312 452 159.700195312 452 276.688476562 528.5 c 0
 393.677734375 605 393.677734375 605 570.677734375 605 c 0
 778.677734375 605 l 0
 794.37109375 694 l 0
 808.124023438 772 808.124023438 772 738.443359375 805 c 0
 668.76171875 838 668.76171875 838 522.76171875 838 c 0
 339.76171875 838 l 0
 371.1484375 1016 l 0
 443.969726562 1032 443.969726562 1032 556.969726562 1032 c 0
EndSplineSet
EndChar

StartChar: b
Encoding: 98 98 110
Width: 1024
Flags: HW
LayerCount: 2
Fore
SplineSet
659.76171875 838 m 0
 579.76171875 838 579.76171875 838 496.059570312 817 c 0
 397.139648438 256 l 0
 384.796875 186 384.796875 186 512.796875 186 c 0
 611.796875 186 611.796875 186 681.990234375 275 c 0
 752.182617188 364 752.182617188 364 782.51171875 536 c 0
 809.13671875 687 809.13671875 687 776.44921875 762.5 c 0
 743.76171875 838 743.76171875 838 659.76171875 838 c 0
321.698242188 1280 m 0
 577.698242188 1280 l 0
 529.9140625 1009 l 0
 609.55859375 1024 609.55859375 1024 692.55859375 1024 c 0
 881.55859375 1024 881.55859375 1024 979.607421875 891 c 0
 1077.65625 758 1077.65625 758 1038.51171875 536 c 0
 995.134765625 290 995.134765625 290 841.567382812 145 c 0
 688 0 688 0 480 0 c 0
 352 0 l 0
 227 0 227 0 171.903320312 59 c 0
 116.806640625 118 116.806640625 118 141.139648438 256 c 0
 321.698242188 1280 l 0
EndSplineSet
EndChar

StartChar: c
Encoding: 99 99 111
Width: 1024
Flags: HW
LayerCount: 2
Fore
SplineSet
856.969726562 1032 m 0
 908.969726562 1032 908.969726562 1032 955.263671875 1028 c 0
 1001.55859375 1024 1001.55859375 1024 1022.35351562 1020 c 0
 1043.1484375 1016 l 0
 1011.76171875 838 l 0
 822.76171875 838 l 0
 680.76171875 838 680.76171875 838 582.833007812 750.5 c 0
 484.905273438 663 484.905273438 663 458.279296875 512 c 0
 427.24609375 336 427.24609375 336 492.021484375 261 c 0
 556.796875 186 556.796875 186 707.796875 186 c 0
 896.796875 186 l 0
 865.41015625 8 l 0
 790.58984375 -8 790.58984375 -8 673.58984375 -8 c 0
 538.58984375 -8 538.58984375 -8 442.850585938 19 c 0
 347.111328125 46 347.111328125 46 282.602539062 105.5 c 0
 218.09375 165 218.09375 165 197.491210938 266.5 c 0
 176.888671875 368 176.888671875 368 202.279296875 512 c 0
 244.774414062 753 244.774414062 753 420.372070312 892.5 c 0
 595.969726562 1032 595.969726562 1032 856.969726562 1032 c 0
EndSplineSet
EndChar

StartChar: d
Encoding: 100 100 112
Width: 1024
Flags: HW
LayerCount: 2
Fore
SplineSet
659.76171875 838 m 0
 577.76171875 838 577.76171875 838 514.1875 744 c 0
 450.612304688 650 450.612304688 650 422.047851562 488 c 0
 397.361328125 348 397.361328125 348 438.579101562 267 c 0
 479.796875 186 479.796875 186 576.796875 186 c 0
 704.796875 186 704.796875 186 717.139648438 256 c 0
 816.059570312 817 l 0
 739.76171875 838 739.76171875 838 659.76171875 838 c 0
1153.69824219 1280 m 0
 973.139648438 256 l 0
 948.806640625 118 948.806640625 118 872.903320312 59 c 0
 797 0 797 0 672 0 c 0
 544 0 l 0
 336 0 336 0 231.275390625 132 c 0
 126.55078125 264 126.55078125 264 166.047851562 488 c 0
 209.071289062 732 209.071289062 732 356.315429688 878 c 0
 503.55859375 1024 503.55859375 1024 692.55859375 1024 c 0
 775.55859375 1024 775.55859375 1024 849.9140625 1009 c 0
 897.698242188 1280 l 0
 1153.69824219 1280 l 0
EndSplineSet
EndChar

StartChar: e
Encoding: 101 101 113
Width: 1024
Flags: HW
LayerCount: 2
Fore
SplineSet
662.583007812 854 m 0
 591.583007812 854 591.583007812 854 533.828125 784.5 c 0
 476.07421875 715 476.07421875 715 443.208984375 591 c 0
 792.208984375 591 l 0
 804.375976562 660 l 0
 820.59765625 752 820.59765625 752 782.590820312 803 c 0
 744.583007812 854 744.583007812 854 662.583007812 854 c 0
695.379882812 1040 m 0
 883.379882812 1040 883.379882812 1040 987.129882812 936.5 c 0
 1090.88085938 833 1090.88085938 833 1060.37597656 660 c 0
 1048.20898438 591 l 0
 1032.51660156 502 1032.51660156 502 989.432617188 467.5 c 0
 946.349609375 433 946.349609375 433 850.349609375 433 c 0
 418.349609375 433 l 0
 415.895507812 317 415.895507812 317 471.846679688 251.5 c 0
 527.796875 186 527.796875 186 632.796875 186 c 0
 896.796875 186 l 0
 865.41015625 8 l 0
 751.58984375 -8 751.58984375 -8 598.58984375 -8 c 0
 357.58984375 -8 357.58984375 -8 242.686523438 131.5 c 0
 127.784179688 271 127.784179688 271 170.279296875 512 c 0
 212.59765625 752 212.59765625 752 359.989257812 896 c 0
 507.379882812 1040 507.379882812 1040 695.379882812 1040 c 0
EndSplineSet
EndChar

StartChar: f
Encoding: 102 102 114
Width: 1024
Flags: HW
LayerCount: 2
Fore
SplineSet
1152.28808594 1272 m 0
 1120.90136719 1094 l 0
 931.901367188 1094 l 0
 819.901367188 1094 819.901367188 1094 774.465820312 1057.5 c 0
 729.030273438 1021 729.030273438 1021 711.573242188 922 c 0
 1090.57324219 922 l 0
 1057.77636719 736 l 0
 678.776367188 736 l 0
 549 0 l 0
 293 0 l 0
 422.776367188 736 l 0
 225.776367188 736 l 0
 258.573242188 922 l 0
 455.573242188 922 l 0
 474.440429688 1029 474.440429688 1029 505.25390625 1096 c 0
 536.068359375 1163 536.068359375 1163 595.415039062 1207.5 c 0
 654.76171875 1252 654.76171875 1252 742.435546875 1270 c 0
 830.109375 1288 830.109375 1288 966.109375 1288 c 0
 1018.109375 1288 1018.109375 1288 1064.90429688 1284 c 0
 1111.69824219 1280 1111.69824219 1280 1131.99316406 1276 c 0
 1152.28808594 1272 l 0
EndSplineSet
EndChar

StartChar: g
Encoding: 103 103 115
Width: 1024
Flags: HW
LayerCount: 2
Fore
SplineSet
691.76171875 838 m 0
 594.76171875 838 594.76171875 838 529.65234375 783.5 c 0
 464.541992188 729 464.541992188 729 447.791015625 634 c 0
 432.098632812 545 432.098632812 545 470.017578125 493.5 c 0
 507.936523438 442 507.936523438 442 589.936523438 442 c 0
 749.936523438 442 l 0
 807.418945312 768 l 0
 819.76171875 838 819.76171875 838 691.76171875 838 c 0
724.55859375 1024 m 0
 852.55859375 1024 l 0
 977.55859375 1024 977.55859375 1024 1032.65527344 965 c 0
 1087.75195312 906 1087.75195312 906 1063.41894531 768 c 0
 949.159179688 120 l 0
 913.365234375 -83 913.365234375 -83 750.907226562 -173.5 c 0
 588.44921875 -264 588.44921875 -264 309.44921875 -264 c 0
 255.44921875 -264 255.44921875 -264 207.155273438 -260 c 0
 158.860351562 -256 158.860351562 -256 137.565429688 -252 c 0
 116.270507812 -248 l 0
 147.657226562 -70 l 0
 343.657226562 -70 l 0
 498.657226562 -70 498.657226562 -70 586.827148438 -26.5 c 0
 674.998046875 17 674.998046875 17 693.159179688 120 c 0
 717.139648438 256 l 0
 557.139648438 256 l 0
 357.139648438 256 357.139648438 256 259.037109375 357.5 c 0
 160.934570312 459 160.934570312 459 191.791015625 634 c 0
 223.706054688 815 223.706054688 815 366.6328125 919.5 c 0
 509.55859375 1024 509.55859375 1024 724.55859375 1024 c 0
EndSplineSet
EndChar

StartChar: h
Encoding: 104 104 116
Width: 1024
Flags: HW
LayerCount: 2
Fore
SplineSet
321.698242188 1280 m 0
 577.698242188 1280 l 0
 529.9140625 1009 l 0
 609.55859375 1024 609.55859375 1024 692.55859375 1024 c 0
 896.55859375 1024 896.55859375 1024 987.659179688 939.5 c 0
 1078.75976562 855 1078.75976562 855 1044.0234375 658 c 0
 928 0 l 0
 672 0 l 0
 788.0234375 658 l 0
 805.126953125 755 805.126953125 755 771.444335938 796.5 c 0
 737.76171875 838 737.76171875 838 659.76171875 838 c 0
 579.76171875 838 579.76171875 838 496.059570312 817 c 0
 352 0 l 0
 96 0 l 0
 321.698242188 1280 l 0
EndSplineSet
EndChar

StartChar: i
Encoding: 105 105 117
Width: 1024
Flags: HW
LayerCount: 2
Fore
SplineSet
322.573242188 922 m 0
 802.573242188 922 l 0
 672.796875 186 l 0
 928.796875 186 l 0
 896 0 l 0
 128 0 l 0
 160.796875 186 l 0
 416.796875 186 l 0
 513.776367188 736 l 0
 289.776367188 736 l 0
 322.573242188 922 l 0
586.799804688 1394 m 0
 928.799804688 1394 l 0
 888.59765625 1166 l 0
 546.59765625 1166 l 0
 586.799804688 1394 l 0
EndSplineSet
EndChar

StartChar: j
Encoding: 106 106 118
Width: 1024
Flags: HW
LayerCount: 2
Fore
SplineSet
354.573242188 922 m 0
 962.573242188 922 l 0
 821.159179688 120 l 0
 784.659179688 -87 784.659179688 -87 638.0546875 -175.5 c 0
 491.44921875 -264 491.44921875 -264 240.44921875 -264 c 0
 196.44921875 -264 196.44921875 -264 157.655273438 -260 c 0
 118.860351562 -256 118.860351562 -256 101.565429688 -252 c 0
 84.2705078125 -248 l 0
 115.657226562 -70 l 0
 274.657226562 -70 l 0
 402.657226562 -70 402.657226562 -70 474.474609375 -28.5 c 0
 546.291992188 13 546.291992188 13 565.159179688 120 c 0
 673.776367188 736 l 0
 321.776367188 736 l 0
 354.573242188 922 l 0
746.799804688 1394 m 0
 1088.79980469 1394 l 0
 1048.59765625 1166 l 0
 706.59765625 1166 l 0
 746.799804688 1394 l 0
EndSplineSet
EndChar

StartChar: k
Encoding: 107 107 119
Width: 1024
Flags: HW
LayerCount: 2
Fore
SplineSet
785.55859375 1024 m 0
 1076.55859375 1024 l 0
 687.556640625 627 l 0
 960 0 l 0
 694 0 l 0
 430.20703125 608 l 0
 323 0 l 0
 96 0 l 0
 321.698242188 1280 l 0
 548.698242188 1280 l 0
 441.4921875 672 l 0
 785.55859375 1024 l 0
EndSplineSet
EndChar

StartChar: l
Encoding: 108 108 120
Width: 1024
Flags: HW
LayerCount: 2
Fore
SplineSet
385.698242188 1280 m 0
 865.698242188 1280 l 0
 672.796875 186 l 0
 928.796875 186 l 0
 896 0 l 0
 128 0 l 0
 160.796875 186 l 0
 416.796875 186 l 0
 576.901367188 1094 l 0
 352.901367188 1094 l 0
 385.698242188 1280 l 0
EndSplineSet
EndChar

StartChar: m
Encoding: 109 109 121
Width: 1024
Flags: HW
LayerCount: 2
Fore
SplineSet
508.969726562 1032 m 0
 572.969726562 1032 572.969726562 1032 619.176757812 1019 c 0
 665.384765625 1006 665.384765625 1006 679.092773438 993 c 0
 692.80078125 980 l 0
 701.858398438 986 701.858398438 986 717.357421875 994.5 c 0
 732.856445312 1003 732.856445312 1003 781.913085938 1017.5 c 0
 830.969726562 1032 830.969726562 1032 878.969726562 1032 c 0
 1001.96972656 1032 1001.96972656 1032 1059.71484375 962.5 c 0
 1117.45996094 893 1117.45996094 893 1095.41894531 768 c 0
 960 0 l 0
 756 0 l 0
 891.418945312 768 l 0
 897.766601562 804 897.766601562 804 882.469726562 825 c 0
 867.172851562 846 867.172851562 846 834.172851562 846 c 0
 814.172851562 846 814.172851562 846 795.526367188 839.5 c 0
 776.880859375 833 776.880859375 833 767.734375 826.5 c 0
 758.587890625 820 l 0
 614 0 l 0
 410 0 l 0
 545.418945312 768 l 0
 559.172851562 846 559.172851562 846 488.172851562 846 c 0
 466.172851562 846 466.172851562 846 447.526367188 839.5 c 0
 428.880859375 833 428.880859375 833 420.734375 826.5 c 0
 412.587890625 820 l 0
 268 0 l 0
 64 0 l 0
 229.041992188 936 l 0
 233.747070312 940 233.747070312 940 242.393554688 946.5 c 0
 251.040039062 953 251.040039062 953 280.44921875 969.5 c 0
 309.858398438 986 309.858398438 986 340.5625 998.5 c 0
 371.266601562 1011 371.266601562 1011 417.118164062 1021.5 c 0
 462.969726562 1032 462.969726562 1032 508.969726562 1032 c 0
EndSplineSet
EndChar

StartChar: n
Encoding: 110 110 122
Width: 1024
Flags: HW
LayerCount: 2
Fore
SplineSet
928 0 m 0
 672 0 l 0
 788.0234375 658 l 0
 806.713867188 764 806.713867188 764 773.6484375 809 c 0
 740.583007812 854 740.583007812 854 662.583007812 854 c 0
 618.583007812 854 618.583007812 854 577.172851562 846 c 0
 535.76171875 838 535.76171875 838 516.439453125 830.5 c 0
 497.1171875 823 l 0
 352 0 l 0
 96 0 l 0
 261.041992188 936 l 0
 267.747070312 940 267.747070312 940 281.481445312 947 c 0
 295.215820312 954 295.215820312 954 339.889648438 972 c 0
 384.563476562 990 384.563476562 990 432.032226562 1004 c 0
 479.500976562 1018 479.500976562 1018 551.440429688 1029 c 0
 623.379882812 1040 623.379882812 1040 695.379882812 1040 c 0
 899.379882812 1040 899.379882812 1040 989.86328125 952 c 0
 1080.34667969 864 1080.34667969 864 1044.0234375 658 c 0
 928 0 l 0
EndSplineSet
EndChar

StartChar: o
Encoding: 111 111 123
Width: 1024
Flags: HW
LayerCount: 2
Fore
SplineSet
662.583007812 854 m 0
 576.583007812 854 576.583007812 854 517.653320312 775 c 0
 458.723632812 696 458.723632812 696 426.279296875 512 c 0
 393.834960938 328 393.834960938 328 424.905273438 249 c 0
 455.975585938 170 455.975585938 170 541.975585938 170 c 0
 627.975585938 170 627.975585938 170 686.905273438 249 c 0
 745.834960938 328 745.834960938 328 778.279296875 512 c 0
 810.723632812 696 810.723632812 696 779.653320312 775 c 0
 748.583007812 854 748.583007812 854 662.583007812 854 c 0
170.279296875 512 m 0
 196.0234375 658 196.0234375 658 243.684570312 761 c 0
 291.346679688 864 291.346679688 864 359.514648438 924.5 c 0
 427.681640625 985 427.681640625 985 509.53125 1012.5 c 0
 591.379882812 1040 591.379882812 1040 695.379882812 1040 c 0
 799.379882812 1040 799.379882812 1040 871.53125 1012.5 c 0
 943.681640625 985 943.681640625 985 990.514648438 924.5 c 0
 1037.34667969 864 1037.34667969 864 1048.68457031 761 c 0
 1060.0234375 658 1060.0234375 658 1034.27929688 512 c 0
 1008.53613281 366 1008.53613281 366 960.874023438 263 c 0
 913.211914062 160 913.211914062 160 845.044921875 99.5 c 0
 776.876953125 39 776.876953125 39 695.02734375 11.5 c 0
 613.178710938 -16 613.178710938 -16 509.178710938 -16 c 0
 405.178710938 -16 405.178710938 -16 333.02734375 11.5 c 0
 260.876953125 39 260.876953125 39 214.044921875 99.5 c 0
 167.211914062 160 167.211914062 160 155.874023438 263 c 0
 144.536132812 366 144.536132812 366 170.279296875 512 c 0
EndSplineSet
EndChar

StartChar: p
Encoding: 112 112 124
Width: 1024
Flags: HW
LayerCount: 2
Fore
SplineSet
659.76171875 838 m 0
 499.76171875 838 499.76171875 838 487.418945312 768 c 0
 429.936523438 442 l 0
 557.936523438 442 l 0
 654.936523438 442 654.936523438 442 720.045898438 496.5 c 0
 785.15625 551 785.15625 551 801.907226562 646 c 0
 817.600585938 735 817.600585938 735 779.681640625 786.5 c 0
 741.76171875 838 741.76171875 838 659.76171875 838 c 0
532.55859375 1024 m 0
 692.55859375 1024 l 0
 892.55859375 1024 892.55859375 1024 990.662109375 922.5 c 0
 1088.76464844 821 1088.76464844 821 1057.90722656 646 c 0
 1025.9921875 465 1025.9921875 465 883.065429688 360.5 c 0
 740.139648438 256 740.139648438 256 525.139648438 256 c 0
 397.139648438 256 l 0
 306.860351562 -256 l 0
 50.8603515625 -256 l 0
 231.418945312 768 l 0
 255.751953125 906 255.751953125 906 331.655273438 965 c 0
 407.55859375 1024 407.55859375 1024 532.55859375 1024 c 0
EndSplineSet
EndChar

StartChar: q
Encoding: 113 113 125
Width: 1024
Flags: HW
LayerCount: 2
Fore
SplineSet
691.76171875 838 m 0
 594.76171875 838 594.76171875 838 529.65234375 783.5 c 0
 464.541992188 729 464.541992188 729 447.791015625 634 c 0
 432.098632812 545 432.098632812 545 470.017578125 493.5 c 0
 507.936523438 442 507.936523438 442 589.936523438 442 c 0
 749.936523438 442 l 0
 807.418945312 768 l 0
 819.76171875 838 819.76171875 838 691.76171875 838 c 0
724.55859375 1024 m 0
 852.55859375 1024 l 0
 977.55859375 1024 977.55859375 1024 1032.65527344 965 c 0
 1087.75195312 906 1087.75195312 906 1063.41894531 768 c 0
 882.860351562 -256 l 0
 626.860351562 -256 l 0
 717.139648438 256 l 0
 557.139648438 256 l 0
 357.139648438 256 357.139648438 256 259.037109375 357.5 c 0
 160.934570312 459 160.934570312 459 191.791015625 634 c 0
 223.706054688 815 223.706054688 815 366.6328125 919.5 c 0
 509.55859375 1024 509.55859375 1024 724.55859375 1024 c 0
EndSplineSet
EndChar

StartChar: r
Encoding: 114 114 126
Width: 1024
Flags: HW
LayerCount: 2
Fore
SplineSet
1044.0234375 658 m 0
 788.0234375 658 l 0
 806.713867188 764 806.713867188 764 773.6484375 809 c 0
 740.583007812 854 740.583007812 854 662.583007812 854 c 0
 618.583007812 854 618.583007812 854 577.172851562 846 c 0
 535.76171875 838 535.76171875 838 516.439453125 830.5 c 0
 497.1171875 823 l 0
 352 0 l 0
 96 0 l 0
 261.041992188 936 l 0
 267.747070312 940 267.747070312 940 281.481445312 947 c 0
 295.215820312 954 295.215820312 954 339.889648438 972 c 0
 384.563476562 990 384.563476562 990 432.032226562 1004 c 0
 479.500976562 1018 479.500976562 1018 551.440429688 1029 c 0
 623.379882812 1040 623.379882812 1040 695.379882812 1040 c 0
 899.379882812 1040 899.379882812 1040 989.86328125 952 c 0
 1080.34667969 864 1080.34667969 864 1044.0234375 658 c 0
EndSplineSet
EndChar

StartChar: s
Encoding: 115 115 127
Width: 1024
Flags: HW
LayerCount: 2
Fore
SplineSet
848.969726562 1032 m 0
 893.969726562 1032 893.969726562 1032 934.763671875 1028 c 0
 975.55859375 1024 975.55859375 1024 993.353515625 1020 c 0
 1011.1484375 1016 l 0
 979.76171875 838 l 0
 814.76171875 838 l 0
 683.76171875 838 683.76171875 838 611.353515625 813 c 0
 538.9453125 788 538.9453125 788 528.895507812 731 c 0
 521.13671875 687 521.13671875 687 542.258789062 656.5 c 0
 563.380859375 626 563.380859375 626 602.794921875 608.5 c 0
 642.208984375 591 642.208984375 591 690.564453125 576 c 0
 738.919921875 561 738.919921875 561 786.481445312 541.5 c 0
 834.04296875 522 834.04296875 522 871.517578125 493.5 c 0
 908.9921875 465 908.9921875 465 926.499023438 414 c 0
 944.006835938 363 944.006835938 363 931.487304688 292 c 0
 916.852539062 209 916.852539062 209 869.44921875 150 c 0
 822.045898438 91 822.045898438 91 743.55078125 57 c 0
 665.055664062 23 665.055664062 23 565.322265625 7.5 c 0
 465.58984375 -8 465.58984375 -8 335.58984375 -8 c 0
 287.58984375 -8 287.58984375 -8 243.794921875 -4 c 0
 200 0 200 0 180.705078125 4 c 0
 161.41015625 8 l 0
 192.796875 186 l 0
 369.796875 186 l 0
 510.796875 186 510.796875 186 588.1171875 210.5 c 0
 665.436523438 235 665.436523438 235 675.487304688 292 c 0
 683.24609375 336 683.24609375 336 662.211914062 367 c 0
 641.177734375 398 641.177734375 398 601.67578125 415 c 0
 562.172851562 432 562.172851562 432 513.818359375 447 c 0
 465.462890625 462 465.462890625 462 417.989257812 482 c 0
 370.516601562 502 370.516601562 502 332.953125 530 c 0
 295.390625 558 295.390625 558 277.971679688 609.5 c 0
 260.551757812 661 260.551757812 661 272.895507812 731 c 0
 301.459960938 893 301.459960938 893 447.21484375 962.5 c 0
 592.969726562 1032 592.969726562 1032 848.969726562 1032 c 0
EndSplineSet
EndChar

StartChar: t
Encoding: 116 116 128
Width: 1024
Flags: HW
LayerCount: 2
Fore
SplineSet
865.41015625 8 m 0
 802.58984375 -8 802.58984375 -8 705.58984375 -8 c 0
 502.58984375 -8 502.58984375 -8 412.517578125 79.5 c 0
 322.446289062 167 322.446289062 167 358.59375 372 c 0
 422.776367188 736 l 0
 193.776367188 736 l 0
 226.573242188 922 l 0
 455.573242188 922 l 0
 518.698242188 1280 l 0
 774.698242188 1280 l 0
 711.573242188 922 l 0
 1090.57324219 922 l 0
 1057.77636719 736 l 0
 678.776367188 736 l 0
 614.59375 372 l 0
 596.784179688 271 596.784179688 271 629.291015625 228.5 c 0
 661.796875 186 661.796875 186 739.796875 186 c 0
 896.796875 186 l 0
 865.41015625 8 l 0
EndSplineSet
EndChar

StartChar: u
Encoding: 117 117 129
Width: 1024
Flags: HW
LayerCount: 2
Fore
SplineSet
276.55859375 1024 m 0
 532.55859375 1024 l 0
 416.536132812 366 l 0
 397.844726562 260 397.844726562 260 430.91015625 215 c 0
 463.975585938 170 463.975585938 170 541.975585938 170 c 0
 585.975585938 170 585.975585938 170 627.385742188 178 c 0
 668.796875 186 668.796875 186 688.119140625 193.5 c 0
 707.44140625 201 l 0
 852.55859375 1024 l 0
 1108.55859375 1024 l 0
 943.516601562 88 l 0
 936.811523438 84 936.811523438 84 923.077148438 77 c 0
 909.342773438 70 909.342773438 70 864.668945312 52 c 0
 819.995117188 34 819.995117188 34 772.526367188 20 c 0
 725.057617188 6 725.057617188 6 653.118164062 -5 c 0
 581.178710938 -16 581.178710938 -16 509.178710938 -16 c 0
 305.178710938 -16 305.178710938 -16 214.6953125 72 c 0
 124.211914062 160 124.211914062 160 160.536132812 366 c 0
 276.55859375 1024 l 0
EndSplineSet
EndChar

StartChar: v
Encoding: 118 118 130
Width: 1024
Flags: HW
LayerCount: 2
Fore
SplineSet
873.55859375 1024 m 0
 1140.55859375 1024 l 0
 658 0 l 0
 366 0 l 0
 244.55859375 1024 l 0
 511.55859375 1024 l 0
 556.73046875 645 l 0
 568.77734375 322 l 0
 694.73046875 645 l 0
 873.55859375 1024 l 0
EndSplineSet
EndChar

StartChar: w
Encoding: 119 119 131
Width: 1024
Flags: HW
LayerCount: 2
Fore
SplineSet
212.55859375 1024 m 0
 441.55859375 1024 l 0
 419.73046875 645 l 0
 382.77734375 322 l 0
 497.73046875 645 l 0
 562.418945312 768 l 0
 732.418945312 768 l 0
 753.73046875 645 l 0
 754.77734375 322 l 0
 831.73046875 645 l 0
 943.55859375 1024 l 0
 1172.55859375 1024 l 0
 870 0 l 0
 666 0 l 0
 590.465820312 445 l 0
 358 0 l 0
 154 0 l 0
 212.55859375 1024 l 0
EndSplineSet
EndChar

StartChar: x
Encoding: 120 120 132
Width: 1024
Flags: HW
LayerCount: 2
Fore
SplineSet
244.55859375 1024 m 0
 541.55859375 1024 l 0
 636.133789062 704 l 0
 843.55859375 1024 l 0
 1140.55859375 1024 l 0
 750.279296875 512 l 0
 960 0 l 0
 663 0 l 0
 568.424804688 320 l 0
 361 0 l 0
 64 0 l 0
 454.279296875 512 l 0
 244.55859375 1024 l 0
EndSplineSet
EndChar

StartChar: y
Encoding: 121 121 133
Width: 1024
Flags: HW
LayerCount: 2
Fore
SplineSet
276.55859375 1024 m 0
 532.55859375 1024 l 0
 451.80078125 566 l 0
 439.810546875 498 439.810546875 498 475.374023438 470 c 0
 510.936523438 442 510.936523438 442 589.936523438 442 c 0
 749.936523438 442 l 0
 852.55859375 1024 l 0
 1108.55859375 1024 l 0
 949.159179688 120 l 0
 930.46875 14 930.46875 14 878.244140625 -61 c 0
 826.01953125 -136 826.01953125 -136 742.260742188 -180 c 0
 658.502929688 -224 658.502929688 -224 552.4765625 -244 c 0
 446.44921875 -264 446.44921875 -264 309.44921875 -264 c 0
 255.44921875 -264 255.44921875 -264 207.155273438 -260 c 0
 158.860351562 -256 158.860351562 -256 137.565429688 -252 c 0
 116.270507812 -248 l 0
 147.657226562 -70 l 0
 343.657226562 -70 l 0
 498.657226562 -70 498.657226562 -70 586.827148438 -26.5 c 0
 674.998046875 17 674.998046875 17 693.159179688 120 c 0
 717.139648438 256 l 0
 557.139648438 256 l 0
 364.139648438 256 364.139648438 256 267.274414062 339 c 0
 170.41015625 422 170.41015625 422 195.80078125 566 c 0
 276.55859375 1024 l 0
EndSplineSet
EndChar

StartChar: z
Encoding: 122 122 134
Width: 1024
Flags: HW
LayerCount: 2
Fore
SplineSet
340.55859375 1024 m 0
 1044.55859375 1024 l 0
 1011.76171875 838 l 0
 467.796875 186 l 0
 928.796875 186 l 0
 896 0 l 0
 128 0 l 0
 160.796875 186 l 0
 704.76171875 838 l 0
 307.76171875 838 l 0
 340.55859375 1024 l 0
EndSplineSet
EndChar

StartChar: braceleft
Encoding: 123 123 135
Width: 1024
Flags: HW
LayerCount: 2
Fore
SplineSet
949.381835938 1437 m 0
 1075.38183594 1437 l 0
 1042.58496094 1251 l 0
 916.584960938 1251 l 0
 893.584960938 1251 893.584960938 1251 874.467773438 1247.5 c 0
 855.350585938 1244 855.350585938 1244 840.763671875 1235 c 0
 826.176757812 1226 826.176757812 1226 815.266601562 1218 c 0
 804.35546875 1210 804.35546875 1210 795.681640625 1192 c 0
 787.0078125 1174 787.0078125 1174 781.391601562 1162 c 0
 775.776367188 1150 775.776367188 1150 770.19140625 1124 c 0
 764.607421875 1098 764.607421875 1098 761.374023438 1082.5 c 0
 758.140625 1067 758.140625 1067 752.322265625 1034 c 0
 692.194335938 693 l 0
 500.551757812 661 l 0
 475.690429688 520 l 0
 656.047851562 488 l 0
 595.919921875 147 l 0
 590.1015625 114 590.1015625 114 587.868164062 98.5 c 0
 585.634765625 83 585.634765625 83 582.05078125 57 c 0
 578.465820312 31 578.465820312 31 579.850585938 19 c 0
 581.234375 7 581.234375 7 583.560546875 -11 c 0
 585.88671875 -29 585.88671875 -29 593.975585938 -37 c 0
 602.065429688 -45 602.065429688 -45 613.478515625 -54 c 0
 624.891601562 -63 624.891601562 -63 642.774414062 -66.5 c 0
 660.657226562 -70 660.657226562 -70 683.657226562 -70 c 0
 809.657226562 -70 l 0
 776.860351562 -256 l 0
 650.860351562 -256 l 0
 440.860351562 -256 440.860351562 -256 356.9921875 -147.5 c 0
 273.123046875 -39 273.123046875 -39 342.919921875 147 c 0
 470.047851562 488 l 0
 150.047851562 488 l 0
 186.194335938 693 l 0
 506.194335938 693 l 0
 499.322265625 1034 l 0
 495.119140625 1220 495.119140625 1220 617.25 1328.5 c 0
 739.381835938 1437 739.381835938 1437 949.381835938 1437 c 0
EndSplineSet
EndChar

StartChar: bar
Encoding: 124 124 136
Width: 1024
Flags: HW
LayerCount: 2
Fore
SplineSet
637.381835938 1437 m 0
 893.381835938 1437 l 0
 594.860351562 -256 l 0
 338.860351562 -256 l 0
 637.381835938 1437 l 0
EndSplineSet
EndChar

StartChar: braceright
Encoding: 125 125 137
Width: 1024
Flags: HW
LayerCount: 2
Fore
SplineSet
581.381835938 1437 m 0
 791.381835938 1437 791.381835938 1437 875.25 1328.5 c 0
 959.119140625 1220 959.119140625 1220 889.322265625 1034 c 0
 762.194335938 693 l 0
 1082.19433594 693 l 0
 1046.04785156 488 l 0
 726.047851562 488 l 0
 732.919921875 147 l 0
 737.123046875 -39 737.123046875 -39 614.9921875 -147.5 c 0
 492.860351562 -256 492.860351562 -256 282.860351562 -256 c 0
 156.860351562 -256 l 0
 189.657226562 -70 l 0
 315.657226562 -70 l 0
 338.657226562 -70 338.657226562 -70 357.774414062 -66.5 c 0
 376.891601562 -63 376.891601562 -63 391.478515625 -54 c 0
 406.065429688 -45 406.065429688 -45 416.975585938 -37 c 0
 427.88671875 -29 427.88671875 -29 436.560546875 -11 c 0
 445.234375 7 445.234375 7 450.850585938 19 c 0
 456.465820312 31 456.465820312 31 462.05078125 57 c 0
 467.634765625 83 467.634765625 83 470.868164062 98.5 c 0
 474.1015625 114 474.1015625 114 479.919921875 147 c 0
 540.047851562 488 l 0
 731.690429688 520 l 0
 756.551757812 661 l 0
 576.194335938 693 l 0
 636.322265625 1034 l 0
 642.140625 1067 642.140625 1067 644.374023438 1082.5 c 0
 646.607421875 1098 646.607421875 1098 650.19140625 1124 c 0
 653.776367188 1150 653.776367188 1150 652.391601562 1162 c 0
 651.0078125 1174 651.0078125 1174 648.681640625 1192 c 0
 646.35546875 1210 646.35546875 1210 638.266601562 1218 c 0
 630.176757812 1226 630.176757812 1226 618.763671875 1235 c 0
 607.350585938 1244 607.350585938 1244 589.467773438 1247.5 c 0
 571.584960938 1251 571.584960938 1251 548.584960938 1251 c 0
 422.584960938 1251 l 0
 455.381835938 1437 l 0
 581.381835938 1437 l 0
EndSplineSet
EndChar

StartChar: asciitilde
Encoding: 126 126 138
Width: 1024
Flags: HW
LayerCount: 2
Fore
SplineSet
130.828125 379 m 0
 166.974609375 584 166.974609375 584 212.252929688 699 c 0
 257.530273438 814 257.530273438 814 323.111328125 865.5 c 0
 388.69140625 917 388.69140625 917 489.69140625 917 c 0
 559.69140625 917 559.69140625 917 607.37109375 901 c 0
 655.049804688 885 655.049804688 885 676.052734375 859.5 c 0
 697.056640625 834 697.056640625 834 707.23828125 801 c 0
 717.418945312 768 717.418945312 768 714.8359375 733.5 c 0
 712.252929688 699 712.252929688 699 710.43359375 666 c 0
 708.615234375 633 708.615234375 633 708.118164062 607.5 c 0
 707.622070312 582 707.622070312 582 719.80078125 566 c 0
 731.979492188 550 731.979492188 550 757.979492188 550 c 0
 810.979492188 550 810.979492188 550 845.556640625 627 c 0
 880.133789062 704 880.133789062 704 914.87109375 901 c 0
 1118.87109375 901 l 0
 1065.62011719 599 1065.62011719 599 987.401367188 481.5 c 0
 909.182617188 364 909.182617188 364 760.182617188 364 c 0
 690.182617188 364 690.182617188 364 642.50390625 380 c 0
 594.825195312 396 594.825195312 396 573.822265625 421.5 c 0
 552.818359375 447 552.818359375 447 542.63671875 480 c 0
 532.456054688 513 532.456054688 513 535.0390625 547.5 c 0
 537.622070312 582 537.622070312 582 539.44140625 615 c 0
 541.259765625 648 541.259765625 648 541.755859375 673.5 c 0
 542.252929688 699 542.252929688 699 530.07421875 715 c 0
 517.895507812 731 517.895507812 731 491.895507812 731 c 0
 438.895507812 731 438.895507812 731 404.229492188 653.5 c 0
 369.564453125 576 369.564453125 576 334.828125 379 c 0
 130.828125 379 l 0
EndSplineSet
EndChar
